<?xml version="1.0" encoding="utf-8"?>
<!-- Generator: Adobe Illustrator 26.5.0, SVG Export Plug-In . SVG Version: 6.00 Build 0)  -->
<svg version="1.1" id="Layer_1" xmlns="http://www.w3.org/2000/svg" xmlns:xlink="http://www.w3.org/1999/xlink" x="0px" y="0px"
	 viewBox="0 0 1331.7 1466.7" style="enable-background:new 0 0 1331.7 1466.7;" xml:space="preserve">
<style type="text/css">
	.st0{fill:#1A1A1A;}
	.st1{fill:none;}
	.st2{fill:none;stroke:#FFFFFF;stroke-width:0;stroke-linecap:round;stroke-linejoin:round;}
	.st3{fill:#FFFFFF;}
	.st4{fill:#19F772;}
	.st5{fill:#C1272D;}
	.st6{fill:url(#SVGID_1_);}
	.st7{fill:#808080;}
	.st8{fill:url(#SVGID_00000163770673425131141940000012443224362005894333_);}
	.st9{fill:url(#SVGID_00000049908130082821547580000013681632743131493288_);}
	.st10{fill:url(#SVGID_00000090290172984908926750000002916082033903587990_);}
	.st11{fill:url(#SVGID_00000113338835363373934450000003542311571519746493_);}
	.st12{fill:url(#SVGID_00000068663037327213589200000007105077540266561166_);}
	.st13{fill:url(#SVGID_00000036229279665629636960000009393305563458218887_);}
	.st14{fill:url(#SVGID_00000029037539714031852640000000705647702675799454_);}
	.st15{fill:none;stroke:#000000;stroke-width:0;stroke-linecap:round;stroke-linejoin:round;}
	.st16{fill:url(#SVGID_00000101087673886171171300000001605738255165960870_);}
	.st17{fill:url(#SVGID_00000055664973001492209100000011223257104710530185_);}
	.st18{fill:url(#SVGID_00000156559130323477846450000017190862504454175110_);}
	.st19{fill:url(#SVGID_00000008133021809631500690000011751308077371618180_);}
	.st20{fill:url(#SVGID_00000010274259938291994130000007110420625521819581_);}
	.st21{fill:url(#SVGID_00000155836870919546913890000008089841475285046680_);}
	.st22{fill:url(#SVGID_00000124125929134203890070000009034562462885367435_);}
	.st23{fill:url(#SVGID_00000118369380807754781590000011879715231044312502_);}
	.st24{fill:url(#SVGID_00000054963172994192648730000007151693503893873083_);}
	.st25{fill:url(#SVGID_00000099636341945499370850000012140217298000512148_);}
	.st26{fill:url(#SVGID_00000110461805916093241440000000589812302201146013_);}
	.st27{fill:url(#SVGID_00000106137431727750045010000000626609968239959985_);}
	.st28{fill:url(#SVGID_00000143579320471753875460000013026272065451796668_);}
	.st29{fill:url(#SVGID_00000016039266339866220270000002395120073031154563_);}
	.st30{fill:url(#SVGID_00000085931653160355706230000003985119485459566757_);}
	.st31{fill:url(#SVGID_00000045598607349339722830000009121449218947831952_);}
	.st32{fill:url(#SVGID_00000033367178867216759980000004002157949528613522_);}
	.st33{fill:url(#SVGID_00000101091904221727785180000012863495729110706839_);}
</style>
<g>
	<g>
		<path class="st3" d="M1174.5,614.8c-39.4-54.1-84.9-101.5-135.5-140.9c-0.8-2.3-1.7-4.5-2.7-6.7c-7.8-16.9-17-35.9-27.4-56.1
			c-25.3-48.8-58-104.2-96.4-152.2c-23.6-29.5-45.5-51.1-66.9-66.1c-23.8-16.7-47.6-25.1-70.6-25.1c-19.4,0-37.6,6-52.6,17.2
			c-21.9,16.4-34.3,41.4-34.8,70.2c-0.3,15,2.7,30.4,8.6,45.6c4.4,11.3,10.4,22.5,18,33.4c0.9,1.3,1.7,2.5,2.6,3.8
			c-38.2-5.8-77-8.8-116-8.8c-51,0-103.3,5.2-152.4,15.1c-54.4-68.9-111.1-125.4-168.8-168.3c-24.5-18.2-45.6-31.3-64.4-40.1
			c-20.9-9.7-39.8-14.4-57.9-14.4h0h0c-26.7,0-50.6,10.3-67.3,29.1c-15.3,17-23.1,38.5-23.3,63.8c-0.1,19.2,4.3,40.5,13.2,63.2
			c15.8,40.4,42.4,77.4,60.4,96.8c16.3,17.5,35.4,51.9,54.4,97.9c-53.7,51.4-92.8,107.6-116.3,167.5
			c-25.9,65.9-31.6,134.2-16.7,197.6c23.8,101,97.7,178.3,192.7,201.8c7.3,2,15.5,3.6,24.9,4.8c0.3,0,0.7,0.1,1,0.1l0,0l0,0
			c0.6,0.1,1.3,0.2,1.9,0.2c21.3,2.6,48.9,3.8,92.1,3.8c12.7,0,25.8-0.1,38.5-0.2l0.5,0l0.5,0c12.1-0.1,23.6-0.2,34.8-0.2
			c1.8,12.1,6,23.6,12.2,34c12.1,20.4,31.8,36.3,56,43.3c5.1,1.5,8.3,2.9,10.2,3.9c0.6,21.6,7.8,43.6,20.6,62.6
			c13.6,20.2,33.1,36.2,54.7,44.9c11.3,4.5,23.3,6.9,35.9,6.9c2.6,0,5.3-0.1,7.9-0.3c19.5,30,40.9,53.6,63.8,70.4
			c28.9,21.2,60.4,32,93.7,32c43.6,0,86.3-18.8,126.9-55.9c21.5-19.7,39.8-42,54.5-61.6c7.1-9.5,13.3-18.3,18.7-25.8l0.1-0.2
			c4-5.6,9-12.7,10.8-14.9c3.7-4.4,6.8-9.3,9.5-14.6c1.7-1.3,3.4-2.7,5-4.1c8.1,1.5,16.6,2.6,25.4,2.6c15.3,0,29.5-3.3,42.2-9.8
			c3.8-1.9,6.7-3.2,9.2-4.1c48.7-16.7,90.9-51.6,122.2-101.1c26.4-41.7,43.4-91.2,48.1-139.5c0.7-7.5,1.2-15.1,1.4-22.5
			C1280.3,794.7,1242.7,693.1,1174.5,614.8z M1249,893.1c-0.2,6.8-0.6,13.7-1.3,20.5c-7.8,81.8-58.4,184.4-151,216.1
			c-3.8,1.3-7.9,3.1-13,5.7c-8.6,4.4-18.3,6.6-29,6.6c-11.4,0-23.1-2.5-34.6-5.4c-2.6,3.1-5.4,6-8.4,8.8c-3.3,3-6.9,5.7-10.6,8.2
			c-1.9,5.3-4.6,10.4-8.3,14.9c-2.6,3.1-7.3,9.8-12.3,16.8c-9.5,13.4-21.4,30.2-35.5,47.2c-34.3,41.3-81.9,84.1-141.1,84.1
			c-54.4,0-102.5-35.3-143.2-105.1c-6.6,1.7-14.2,3.1-22.3,3.1c-8.9,0-17.3-1.6-25.1-4.8c-33.9-13.7-58.1-49.5-57.3-85.1
			c0-2.3,0.1-6.9-3.8-12c-3.9-5.1-11.6-10.7-27.2-15.2c-30.5-8.8-50.7-37.8-48.2-69c0.3-3.3,0.6-6.3,0.9-9.2
			c-7.8-0.2-16.9-0.2-27.7-0.2c-11.8,0-24.1,0.1-36.6,0.2c-12.9,0.1-26,0.2-38.8,0.2c-42,0-68.7-1.1-88.8-3.6
			c-0.5,0-0.9-0.1-1.4-0.2c-0.3,0-0.6-0.1-0.9-0.1c-8.4-1.1-15.5-2.5-21.7-4.2c-84.7-20.8-150.6-89.9-172-180.6
			c-13.6-57.7-8.3-120.1,15.5-180.5c24-61,65.5-118.3,123.6-170.3c-18.1-46.5-42.2-98-67.4-125.1c-34.4-37-94.8-135-50-185.1
			c11.2-12.6,27.5-19.5,45.9-19.5c27.3,0,59.7,15.1,105.1,48.8c70.5,52.3,130.1,119.4,174.3,177.1c52.3-12,108.6-18.3,164-18.3
			c45.5,0,104.7,4.3,169.9,19.8c-8.2-20.3-19.3-40.5-33-60c-2.8-4-5.3-8.1-7.6-12.1c-21.3-38.1-17.9-77,9.5-97.5
			c10-7.5,22.2-11.5,35.3-11.5c34.1,0,71.8,26.3,115,80.4c26.5,33.2,50.3,70.2,70.7,106c19.9,35,36.6,68.7,49.4,96.5
			c1.7,3.7,2.8,7.6,3.5,11.5c48.6,36.7,95.7,83.2,138.3,142C1216.1,705.8,1251.4,800.6,1249,893.1z"/>
		<path class="st3" d="M914.8,1150.4c-8.6,4.9-18.6,7.5-29.4,7.5c-1.8,0-3.6-0.1-5.5-0.2c-2.7-0.2-5.4-0.4-7.8-0.6
			c-2.4-0.2-4.6-0.4-6.8-0.6c-2.2-0.2-4.3-0.4-6.4-0.8c-9.3-1.7-17.5-5.6-23.8-11.2c-6.7,2.7-14,4.1-21.5,4.1c-4,0-8.1-0.4-12.2-1.2
			c-1-0.2-1.9-0.4-2.9-0.6c-2.1-0.5-4.6-1-6.8-1.4l-1.3-0.2l-1.4-0.3c-1.9-0.4-3.9-0.7-6.1-1.2c-12.1-2.5-22.6-8.1-30.1-16
			c-5.5,1.9-11.3,2.8-17.2,2.8c-3.3,0-6.6-0.3-9.9-0.9c-1.9-0.3-3.8-0.8-5.6-1.4c-30.1-9.1-62.4-40.1-77.9-55
			c-2.9-2.8-6.1-5.9-7-6.6c-5.5-4.1-13.1-7.2-20.6-9.9c-2.7-1-5.5-2-8.2-3c-18.4-6.7-37.5-13.5-55.9-24c-4-2.3-8-4.7-11.8-7.1
			c-0.9,5.8-1.7,12.8-2.3,20.7c-0.2,2.9,1.9,5.7,5.1,6.7c48,13.8,75,45,74.2,85.8c-0.2,10.7,9.3,24.3,20,28.6
			c0.7,0.3,1.6,0.4,2.8,0.4c4.3,0,10.5-2,16.4-3.9c7.4-2.4,15-4.8,22.5-4.8c10.7,0,18.9,5,23.8,14.5c32.3,63.8,66.9,96.2,102.8,96.2
			c52.8,0,101.7-69,127.9-106c0.6-0.9,1.3-1.8,1.9-2.6c-0.1,0-0.1,0-0.2,0C926.5,1156.7,920.2,1154.2,914.8,1150.4z"/>
		<path class="st3" d="M727.8,814.7c9,11.9,13.5,25.4,12.3,36.9c-1.5,14.7-9.2,30.8-23.7,41.2c8.2-0.9,15.5-3.7,21.5-8.6
			c6.7-5.4,11-12.5,13.6-22.2c3.3-12.7,0.1-24.4-9.7-35.8C737.9,821.6,733.2,817.8,727.8,814.7z"/>
		<path class="st3" d="M712.3,961c3.6,8,5,16.6,3.7,23.9c-1.4,7.8-5,15.9-10.6,22.7c4.2-0.8,8-2.4,11.2-5c1.4-1.1,2.6-2.3,3.6-3.7
			c2.1-2.7,3.7-6,4.8-10.1c2-7.8,0.1-14.8-6.1-22C716.9,964.6,714.7,962.7,712.3,961z"/>
		<path class="st3" d="M672.6,735c4-0.5,7.4-1.8,10.3-4.2c3.3-2.7,5.3-6,6.6-10.9c1.6-6.2,0.1-11.8-4.8-17.4c-2.6-3-5.8-5.4-9.6-7.2
			c3.2,6.8,4.7,14.3,3.9,20.9C678.2,722.5,676.1,729.1,672.6,735z"/>
		<path class="st3" d="M1153.2,873c-2.1,17.9-12.1,38.1-31.1,47.9c1.2,0.1,2.4,0.2,3.5,0.2c10.8,0,19.5-3.7,27.5-11.5
			c7.8-7.7,11.5-17.5,14.3-27.1c0.6-1.9,0.9-4.3,1.2-6.8l0.1-0.8c1.4-11.2-1.2-21.2-7.7-30.6c-6.6-9.5-15.3-15.4-25.7-17.7
			C1148.2,840,1154.9,858.1,1153.2,873z"/>
		<path class="st3" d="M1121.7,973.1c-0.6-0.1-1.3-0.2-2-0.3c-1.1-0.1-2.1-0.1-3.1-0.1c6.8,7.2,10.4,16.1,9.6,23.4
			c-0.7,7.1-4.1,14.8-10.4,20.4c0.6,0.1,1.3,0.1,1.9,0.1c4.6,0,8.2-1.6,11.7-5.1c3.5-3.6,5.3-8.4,6.7-13.1c0.2-0.7,0.4-1.8,0.5-3
			l0.1-0.4c0.6-5.1-0.4-9.6-3.4-13.9C1130.3,976.5,1126.5,973.9,1121.7,973.1z"/>
		<path class="st3" d="M1129.1,742.2c-0.9,8.6-5,17.9-12.6,24.8c5.2-0.1,9.3-1.8,13.2-5.4c3.8-3.5,5.7-8.1,7.5-13.9
			c0.2-0.6,0.3-1.9,0.5-3.1l0.1-0.5c0.6-5.4-0.7-10-4.1-14.7c-2.9-3.9-6.3-6.5-10.5-8.1C1127.6,728.3,1129.8,735.7,1129.1,742.2z"/>
		<path class="st3" d="M1114.1,663c-52.1-72.5-112.8-126.6-177.4-166c-0.7-0.4-1.4-0.9-2.2-1.3c-1.8-1.1-3.7-2.2-5.5-3.3
			c-0.3-0.2-0.6-0.4-0.9-0.5c-2.4-1.4-4.9-2.8-7.3-4.2c-0.3-0.2-0.6-0.3-0.9-0.5c-8.3-4.7-16.6-9.2-25-13.4
			c-0.1-0.1-0.3-0.1-0.4-0.2c0,0-0.1,0-0.1-0.1c-26.3-13.2-53-24.2-79.9-33.2c-0.3-0.1-0.7-0.2-1-0.3c-2.3-0.8-4.5-1.5-6.8-2.2
			c-0.6-0.2-1.2-0.4-1.8-0.6c-2-0.6-4.1-1.3-6.1-1.9c-0.7-0.2-1.4-0.4-2.1-0.6c-2-0.6-4.1-1.2-6.1-1.8c-0.6-0.2-1.3-0.4-1.9-0.6
			c-2.6-0.8-5.3-1.5-7.9-2.2c0,0,0,0,0,0c-0.3-0.1-0.6-0.2-0.9-0.2c0,0,0,0,0,0c-2.1-0.6-4.2-1.1-6.3-1.7c0,0,0,0,0,0
			c-0.3-0.1-0.5-0.1-0.8-0.2c0,0,0,0-0.1,0c-4.4-1.1-8.7-2.2-13.1-3.3c-4.4-1-8.7-2-13.1-3c0,0,0,0-0.1,0c-0.6-0.1-1.1-0.2-1.7-0.4
			c0,0,0,0,0,0c-1.8-0.4-3.6-0.8-5.3-1.1c0,0,0,0,0,0c-0.7-0.2-1.5-0.3-2.2-0.5c0,0,0,0,0,0c-1.7-0.3-3.5-0.7-5.2-1c0,0,0,0,0,0
			c-0.7-0.1-1.5-0.3-2.2-0.4c0,0-0.1,0-0.1,0c-1.8-0.3-3.5-0.7-5.3-1c-0.1,0-0.3,0-0.4-0.1c-3.8-0.7-7.5-1.3-11.3-1.9
			c0,0-0.1,0-0.1,0c-0.8-0.1-1.7-0.3-2.5-0.4c0,0,0,0,0,0c-1.5-0.2-3-0.5-4.4-0.7c0,0,0,0-0.1,0c-1.1-0.2-2.1-0.3-3.2-0.5
			c0,0,0,0,0,0c-1.4-0.2-2.8-0.4-4.2-0.6c0,0,0,0,0,0c-1.2-0.2-2.3-0.3-3.5-0.5c0,0,0,0-0.1,0c-1.4-0.2-2.7-0.4-4.1-0.5c0,0,0,0,0,0
			c-1.3-0.2-2.5-0.3-3.8-0.5c0,0-0.1,0-0.1,0c-1.2-0.2-2.5-0.3-3.7-0.5c0,0,0,0,0,0c-2.4-0.3-4.7-0.5-7.1-0.8c0,0,0,0,0,0
			c-1.1-0.1-2.1-0.2-3.2-0.3c-0.1,0-0.1,0-0.2,0c-1.5-0.1-2.9-0.3-4.3-0.4c0,0,0,0,0,0c-1.1-0.1-2.3-0.2-3.4-0.3c0,0,0,0-0.1,0
			c-1.4-0.1-2.8-0.3-4.2-0.4c0,0,0,0,0,0c-1.1-0.1-2.2-0.2-3.3-0.3c0,0,0,0,0,0c-1.5-0.1-3-0.2-4.4-0.3c0,0-0.1,0-0.1,0
			c-1-0.1-2-0.1-3-0.2c0,0,0,0,0,0c-1.8-0.1-3.6-0.2-5.5-0.3c-0.1,0-0.1,0-0.2,0c-0.6,0-1.2-0.1-1.9-0.1c0,0,0,0,0,0
			c-2.5-0.1-4.9-0.3-7.4-0.4c0,0,0,0,0,0c-0.8,0-1.6-0.1-2.4-0.1c0,0-0.1,0-0.1,0c-1.7-0.1-3.4-0.1-5.1-0.2c0,0,0,0,0,0
			c-0.9,0-1.9-0.1-2.8-0.1c0,0,0,0-0.1,0c-1.6-0.1-3.2-0.1-4.7-0.1c0,0,0,0-0.1,0c-0.9,0-1.9,0-2.8-0.1c0,0,0,0,0,0
			c-1.7,0-3.3-0.1-5-0.1c0,0-0.1,0-0.1,0c-0.8,0-1.6,0-2.4,0c0,0,0,0,0,0c-2.4,0-4.8,0-7.2,0c-0.1,0-0.2,0-0.2,0
			c-39.1,0-76.7,3.3-111.6,8.9c-3,0.5-5.9,1-8.8,1.5c-5.6,1-11,2-16.5,3.1c-0.3,0.1-0.6,0.1-1,0.2c-2.7,0.5-5.3,1.1-7.9,1.7
			c0,0,0,0,0,0c6.2,9.1,17.6,26.2,27.9,41.7c6.5,9.8,12.5,18.9,16.5,25.2c13.2,20.9,23.1,40.7,8.8,48.4
			c-12.4,6.7-20.1,2.1-28.6-10.4c-0.2-0.2-0.3-0.5-0.5-0.7c-0.2-0.2-0.4-0.4-0.5-0.6c-0.2-0.2-0.4-0.5-0.5-0.7
			c0-0.1-0.1-0.1-0.1-0.2c0-0.1-0.2-0.4-0.5-0.9c0,0-0.1-0.1-0.1-0.1c-0.4-0.7-1-1.7-1.7-3c-1-1.6-2-3.4-3.2-5.4
			c-22.7-38.3-113.7-184-238.9-277c-1.2-0.9-2.4-1.8-3.6-2.7c-0.3-0.2-0.6-0.5-1-0.7c-0.9-0.7-1.8-1.3-2.7-1.9
			c-0.3-0.2-0.6-0.5-1-0.7c-1.1-0.8-2.1-1.5-3.2-2.2c-0.1-0.1-0.2-0.1-0.2-0.2c-1.1-0.8-2.2-1.6-3.3-2.3c-0.3-0.2-0.5-0.4-0.8-0.5
			c-0.8-0.6-1.7-1.1-2.5-1.7c-0.3-0.2-0.6-0.4-0.9-0.6c-0.9-0.6-1.8-1.2-2.6-1.8c-0.2-0.1-0.3-0.2-0.5-0.3c-1-0.7-2-1.3-3-2
			c-0.2-0.1-0.4-0.3-0.6-0.4c-0.8-0.5-1.6-1-2.3-1.5c-0.3-0.2-0.5-0.3-0.8-0.5c-0.8-0.5-1.5-1-2.3-1.4c-0.2-0.1-0.3-0.2-0.5-0.3
			c-0.9-0.6-1.8-1.1-2.7-1.6c-0.1-0.1-0.3-0.2-0.4-0.2c-0.7-0.4-1.5-0.9-2.2-1.3c-0.2-0.1-0.5-0.3-0.7-0.4c-0.7-0.4-1.3-0.8-2-1.1
			c-0.2-0.1-0.4-0.2-0.5-0.3c-0.8-0.5-1.7-0.9-2.5-1.3c-0.1,0-0.1-0.1-0.2-0.1c-0.7-0.4-1.4-0.8-2.1-1.1c-0.2-0.1-0.4-0.2-0.6-0.3
			c-0.6-0.3-1.2-0.6-1.8-0.9c-0.2-0.1-0.3-0.2-0.5-0.3c-1.5-0.7-2.9-1.4-4.2-2c-0.2-0.1-0.3-0.1-0.5-0.2c-0.5-0.2-1.1-0.5-1.6-0.7
			c-0.2-0.1-0.3-0.1-0.5-0.2c-1.3-0.6-2.5-1.1-3.7-1.5c-0.1-0.1-0.3-0.1-0.4-0.1c-0.5-0.2-0.9-0.3-1.4-0.5c-0.1-0.1-0.3-0.1-0.4-0.2
			c-0.5-0.2-1-0.4-1.5-0.5c0,0-0.1,0-0.1,0c-0.5-0.2-1.1-0.3-1.6-0.5c-0.1,0-0.2-0.1-0.3-0.1c-0.4-0.1-0.8-0.2-1.2-0.4
			c-0.1,0-0.3-0.1-0.4-0.1c-0.4-0.1-0.8-0.2-1.2-0.3c-0.1,0-0.2,0-0.2-0.1c-0.5-0.1-0.9-0.2-1.4-0.3c-0.1,0-0.2,0-0.2,0
			c-0.4-0.1-0.7-0.1-1.1-0.2c-0.1,0-0.2,0-0.3-0.1c-0.2,0-0.4-0.1-0.6-0.1c-0.1,0-0.2,0-0.3-0.1c-0.1,0-0.2,0-0.3,0
			c-0.1,0-0.3,0-0.4-0.1c-0.1,0-0.3,0-0.4-0.1c-0.1,0-0.2,0-0.3,0c-0.1,0-0.1,0-0.2,0c-0.2,0-0.4,0-0.6-0.1c-0.1,0-0.1,0-0.2,0
			c-0.1,0-0.1,0-0.2,0c-0.1,0-0.2,0-0.3,0c-0.3,0-0.5,0-0.8,0c-0.1,0-0.2,0-0.3,0c0,0-0.1,0-0.1,0c-0.3,0-0.6,0-0.8,0c0,0,0,0,0,0
			c0,0-0.1,0-0.1,0c-0.2,0-0.4,0-0.7,0c-0.1,0-0.1,0-0.2,0c-0.1,0-0.2,0-0.3,0c-0.2,0-0.5,0-0.7,0c-0.1,0-0.1,0-0.2,0
			c-0.3,0-0.5,0-0.7,0.1c0,0,0,0-0.1,0c-0.1,0-0.1,0-0.2,0c-0.2,0-0.4,0.1-0.6,0.1c-0.1,0-0.2,0-0.2,0c-0.1,0-0.1,0-0.2,0
			c-0.1,0-0.3,0.1-0.4,0.1c0,0-0.1,0-0.1,0c0,0-0.1,0-0.1,0c-0.1,0-0.2,0-0.2,0.1c-0.1,0-0.2,0-0.3,0.1c-0.1,0-0.1,0-0.2,0.1
			c0,0-0.1,0-0.1,0c-0.1,0-0.2,0.1-0.3,0.1c-0.1,0-0.1,0-0.2,0.1c-0.1,0-0.2,0.1-0.3,0.1c-0.1,0-0.2,0.1-0.3,0.1c0,0,0,0-0.1,0
			c-0.1,0-0.1,0-0.2,0.1c-0.1,0-0.2,0.1-0.3,0.1c-0.1,0-0.1,0.1-0.2,0.1c-0.1,0.1-0.2,0.1-0.3,0.2c0,0-0.1,0-0.1,0.1
			c-0.1,0.1-0.3,0.2-0.4,0.2c0,0-0.1,0-0.1,0.1c-0.1,0.1-0.2,0.1-0.3,0.2c0,0-0.1,0.1-0.1,0.1c-0.1,0.1-0.2,0.1-0.3,0.2
			c0,0,0,0-0.1,0c-0.1,0.1-0.2,0.2-0.3,0.2c0,0,0,0-0.1,0.1c-0.1,0.1-0.1,0.1-0.2,0.2c0,0,0,0-0.1,0.1c-0.1,0.1-0.2,0.2-0.2,0.2
			c-3.1,3.4-4.2,9.3-3.6,16.8c0,0.4,0.1,0.9,0.1,1.3c0,0.4,0.1,0.7,0.1,1.1c0,0.4,0.1,0.8,0.1,1.2c0.1,0.9,0.3,1.8,0.4,2.8
			c0.1,0.8,0.3,1.5,0.4,2.3c0,0.2,0.1,0.5,0.2,0.7c0.1,0.6,0.2,1.1,0.4,1.7c0.1,0.3,0.1,0.5,0.2,0.8c0.1,0.6,0.3,1.2,0.5,1.9
			c0.1,0.2,0.1,0.4,0.2,0.6c0.2,0.8,0.5,1.7,0.7,2.5c0,0.2,0.1,0.3,0.2,0.5c0.2,0.7,0.4,1.4,0.6,2.1c0.1,0.3,0.2,0.6,0.3,0.9
			c0.2,0.6,0.4,1.3,0.6,1.9c0.1,0.3,0.2,0.6,0.3,0.8c0.1,0.2,0.1,0.3,0.2,0.5c0.1,0.3,0.2,0.5,0.3,0.8c0.3,0.8,0.5,1.6,0.8,2.3
			c0.1,0.3,0.2,0.6,0.4,1c0.3,0.9,0.7,1.8,1,2.7c0.1,0.1,0.1,0.3,0.1,0.4c0,0.1,0.1,0.1,0.1,0.2c1.2,3,2.5,6,3.8,9.1
			c0.1,0.2,0.2,0.5,0.3,0.7c0.3,0.6,0.6,1.2,0.9,1.9c0.2,0.4,0.4,0.8,0.6,1.3c0.2,0.5,0.5,1,0.7,1.5c0.3,0.5,0.5,1.1,0.8,1.6
			c0.2,0.5,0.4,0.9,0.7,1.4c0.2,0.4,0.4,0.7,0.5,1.1c0.1,0.2,0.2,0.4,0.3,0.7c0.3,0.5,0.5,1,0.8,1.5c0.3,0.5,0.5,1.1,0.8,1.6
			c0.3,0.6,0.6,1.2,0.9,1.7c0.2,0.4,0.5,0.9,0.7,1.3c0.4,0.7,0.7,1.3,1.1,2c0.2,0.4,0.4,0.7,0.6,1.1c0.4,0.7,0.8,1.5,1.2,2.2
			c0.1,0.2,0.2,0.3,0.3,0.5c0.2,0.3,0.3,0.5,0.5,0.8c1.1,1.8,2.2,3.7,3.3,5.5c0.1,0.2,0.2,0.4,0.4,0.6c1.8,3,3.8,5.9,5.7,8.8
			c0.1,0.2,0.3,0.4,0.4,0.6c2,2.9,4,5.8,6.1,8.5c0.1,0.2,0.3,0.4,0.4,0.5c2.1,2.8,4.3,5.5,6.5,8.2c0.1,0.2,0.3,0.3,0.4,0.5
			c1.9,2.3,3.9,4.5,5.9,6.6c0,0,0,0,0.1,0.1c0,0,0,0,0,0c0,0,0,0,0,0c1,1,1.9,2.1,2.9,3.2c0,0,0,0,0,0c0.3,0.4,0.6,0.7,1,1.1
			c0,0,0,0,0,0c0.7,0.8,1.3,1.5,2,2.3c0,0,0,0,0,0c0.4,0.4,0.7,0.9,1.1,1.3c0,0,0,0,0,0c0.6,0.7,1.2,1.5,1.8,2.2
			c0,0.1,0.1,0.1,0.1,0.2c0.3,0.4,0.7,0.8,1,1.3c0,0,0,0,0,0c0.6,0.7,1.2,1.5,1.8,2.3h0c0.4,0.5,0.8,1,1.1,1.5c0,0,0,0,0,0
			c0.6,0.8,1.2,1.6,1.8,2.4c0,0,0,0,0,0c0.4,0.5,0.7,1,1.1,1.5c0,0,0,0,0,0c0.6,0.8,1.2,1.7,1.8,2.6c0.3,0.5,0.6,0.9,1,1.4
			c0.7,1,1.3,1.9,2,2.9c0.3,0.4,0.5,0.8,0.8,1.2c0.8,1.2,1.6,2.4,2.4,3.6c0.1,0.2,0.3,0.4,0.4,0.6c2.8,4.4,5.6,8.9,8.3,13.5
			c0.1,0.1,0.2,0.3,0.2,0.4c0.8,1.4,1.6,2.8,2.4,4.2c0.1,0.2,0.2,0.4,0.4,0.7c0.8,1.3,1.5,2.7,2.3,4.1c0.1,0.2,0.3,0.5,0.4,0.7
			c0.8,1.4,1.5,2.7,2.3,4.1c0.1,0.2,0.2,0.4,0.3,0.6c0.8,1.4,1.6,2.9,2.3,4.4c0.1,0.1,0.2,0.3,0.2,0.4c0.8,1.6,1.7,3.2,2.5,4.8
			c15.3,29.9,28.4,62.1,38.4,89.6c0.9,2.4,1.7,4.7,2.5,7c1.6,4.4,3.1,8.6,4.5,12.7c1.4,4.1,2.8,8.1,4,11.8c0.7,2.2,1.4,4.4,2.1,6.4
			c5.4,16.5,8.5,27.4,9,29c0.1,0.4,0.2,0.8,0.2,1.2c0.1,1,0,2.1-0.4,3.1c-1.2,3.2-2.3,6.3-3.3,9.4c-1,3.1-1.9,6.1-2.8,9
			c-0.7,2.4-1.3,4.7-1.8,7c-0.5,2.1-1,4.2-1.4,6.2c-0.3,1.3-0.5,2.6-0.8,3.9c-0.4,2.2-0.7,4.4-1,6.5c-0.3,2.2-0.5,4.4-0.7,6.5
			c-0.2,2-0.3,4-0.3,5.9c-0.5,16.1,2.5,29.9,9.1,41.5c5.4,9.5,12.5,16.2,19.3,20.8c11.3,7.7,21.8,9.8,22,9.8
			c15.5,2.3,22.4,12.5,9.2,24.8s-62.6,3.9-85.2-36c-31-54.9,1.1-112.3,1.1-112.3l-10.8-34C91.9,672.1,108.9,842,196.1,922.2
			c0.3,0.3,0.7,0.6,1,0.9c6.9,6.2,14.2,11.9,21.9,17c2.1,1.4,4.3,2.7,6.4,4.1c1.7,1,3.4,2,5.1,3c0.9,0.5,1.9,1,2.8,1.5
			c1.3,0.7,2.7,1.4,4.1,2.1c11.6,5.8,24,10.4,36.8,13.5c3.3,1,7.3,1.8,11.8,2.5c1.5,0.2,3.1,0.5,4.7,0.7c0.1,0,0.2,0,0.4,0.1l0,0
			l0,0c14.5,1.9,33.3,2.7,54.2,3.1c3.7,0.1,7.6,0.1,11.4,0.1c0,0,0.1,0,0.1,0c5.9,0.1,11.8,0.1,17.9,0.1c25.1,0,51.3-0.4,75.4-0.4
			c43.6,0,79.9,1.2,88.5,7.7c1.1,0.8,2.1,1.6,3.2,2.4c5.4,4,11.1,7.8,17.1,11.5c2.4,1.5,4.8,2.9,7.2,4.3c3.5,2,7,3.8,10.6,5.6
			c1.4,0.7,2.9,1.4,4.3,2c1.5,0.7,3,1.4,4.6,2c4.4,1.9,8.8,3.7,13.2,5.4c1.2,0.5,2.5,1,3.8,1.4c7.5,2.8,15.1,5.5,22.7,8.3
			c2.3,0.9,4.6,1.7,6.9,2.7c0.6,0.3,1.3,0.5,1.9,0.8c1.8,0.7,3.5,1.5,5.2,2.3c4.6,2.1,9,4.6,13.1,7.5c0.6,0.5,1.3,0.9,1.9,1.4
			c3.5,2.7,6.2,3.4,8.4,3.7c4.3,0.6,6.7-0.7,9.6,6.4c0.8,1.9,1.6,3.6,2.5,5.4c0.3,0.5,0.6,1.1,0.8,1.6c2,3.7,4.3,7.2,6.9,10.4
			c0.2,0.2,0.4,0.5,0.6,0.7c1.3,1.6,2.7,3.1,4.1,4.6c0,0,0.1,0.1,0.1,0.1c10.6,10.7,24.6,18.3,41.5,23.4c0.3,0.1,0.7,0.2,1,0.3
			c0.1,0,0.2,0,0.3,0.1c0.2,0,0.4,0.1,0.7,0.1c0,0,0.1,0,0.1,0c0,0,0.1,0,0.1,0c0.5,0.1,1,0.2,1.6,0.2c0,0,0,0,0.1,0c0,0,0,0,0,0
			c0.5,0,1.1,0.1,1.6,0.1c0,0,0,0,0.1,0c0.1,0,0.1,0,0.2,0c0.2,0,0.4,0,0.6,0c0.2,0,0.5,0,0.7,0c0.1,0,0.1,0,0.2,0
			c0.4,0,0.8-0.1,1.1-0.1c0.1,0,0.2,0,0.3,0c0.1,0,0.1,0,0.2,0c0.2,0,0.3-0.1,0.5-0.1c0.3-0.1,0.6-0.1,0.9-0.2c0.1,0,0.2,0,0.2-0.1
			c0.5-0.1,0.9-0.2,1.4-0.4c0.1,0,0.2,0,0.2-0.1c0.4-0.1,0.9-0.3,1.3-0.5c0,0,0,0,0.1,0c0,0,0.1,0,0.1-0.1c0.4-0.2,0.9-0.4,1.3-0.6
			c0,0,0.1,0,0.1-0.1c0.4-0.2,0.9-0.4,1.3-0.7c0.4-0.2,0.8-0.5,1.2-0.8c0,0,0,0,0,0c0,0,0.1,0,0.1-0.1c0.4-0.3,0.7-0.5,1.1-0.8
			c0.1,0,0.1-0.1,0.2-0.1c0.3-0.3,0.7-0.6,1-0.8c0.1,0,0.1-0.1,0.2-0.1c0.3-0.3,0.6-0.6,0.9-0.9c0-0.1,0.1-0.1,0.1-0.2
			c0.3-0.3,0.5-0.6,0.8-1c0,0,0.1-0.1,0.1-0.1c0.2-0.2,0.3-0.5,0.5-0.8c0.1-0.1,0.1-0.2,0.2-0.3c0,0,0-0.1,0.1-0.1
			c0.2-0.3,0.3-0.5,0.4-0.8c0-0.1,0.1-0.2,0.2-0.3c0.2-0.4,0.3-0.8,0.5-1.2c2.4-5.4,4.6-10.9,6-16.5c0.7-2.8,1.2-5.6,1.4-8.5
			c0.1-1.1,0.2-2.1,0.3-3.2c0.3-2.4,0.7-4.7,1-7.1c0.1-0.8,0.4-1.4,0.8-2c0.7-1,2-1.4,3.7-1.4c0,0,0.1,0,0.1,0c0.3,0,0.5,0,0.8,0
			c0,0,0,0,0,0c0.1,0,0.2,0,0.2,0c0.2,0,0.4,0,0.6,0.1c0,0,0,0,0,0c0,0,0,0,0,0c0.1,0,0.1,0,0.2,0c0.2,0,0.3,0.1,0.5,0.1
			c0.1,0,0.1,0,0.2,0.1c0.2,0.1,0.3,0.1,0.5,0.2c0.1,0,0.1,0.1,0.2,0.1c0.2,0.1,0.3,0.2,0.5,0.3c0,0,0.1,0,0.1,0.1c0,0,0,0,0.1,0
			c0.2,0.1,0.3,0.3,0.4,0.4c0,0,0.1,0.1,0.1,0.1c0,0,0,0,0.1,0.1c0.1,0.1,0.2,0.3,0.3,0.4c0,0.1,0.1,0.1,0.1,0.2c0,0,0,0,0,0
			c0.1,0.2,0.2,0.4,0.3,0.7c0.8,2.1,1.5,4.3,1.9,6.5c0.3,1.9,0.5,3.7,0.7,5.5c0.4,4.2,0.4,8.4,0.1,12.6c0,0.1,0,0.2,0,0.3
			c-0.1,1.2-0.2,2.3-0.3,3.5c-0.4,3.5-1,6.9-1.7,10.4c-2,9.1,2.3,16.6,11.2,20.3c1.7,0.7,3.6,1.3,5.7,1.8c0.3,0.1,0.6,0.1,1,0.2
			c1.4,0.3,2.8,0.6,4.2,0.8c0.6,0.1,1.2,0.2,1.8,0.3c0.4,0.1,0.7,0.1,1.1,0.2c0,0,0.1,0,0.1,0c2.7,0.5,5.4,1,8.1,1.6
			c0.6,0.1,1.2,0.2,1.7,0.3c0.3,0,0.6,0.1,0.8,0.1c0.3,0.1,0.7,0.1,1,0.2c0.2,0,0.4,0,0.6,0.1c0.1,0,0.1,0,0.2,0
			c0.3,0,0.7,0.1,1,0.1c0.2,0,0.4,0,0.5,0c0.1,0,0.2,0,0.3,0c0.2,0,0.3,0,0.5,0c0.2,0,0.3,0,0.5,0c0.1,0,0.1,0,0.2,0
			c0.1,0,0.2,0,0.4,0c0.1,0,0.1,0,0.2,0c0.3,0,0.6,0,0.9,0c0.1,0,0.2,0,0.3,0c0.2,0,0.3,0,0.5,0c0.2,0,0.4,0,0.6-0.1
			c0.1,0,0.2,0,0.3,0c0.1,0,0.3,0,0.4-0.1c0.1,0,0.2,0,0.3,0c0.3,0,0.6-0.1,0.9-0.1c0.2,0,0.5-0.1,0.7-0.1c0.1,0,0.3-0.1,0.4-0.1
			c0.1,0,0.3-0.1,0.4-0.1c0.2-0.1,0.5-0.1,0.7-0.2c0.1,0,0.2-0.1,0.3-0.1c0.2-0.1,0.4-0.1,0.5-0.2c0.2-0.1,0.3-0.1,0.5-0.2
			c0.1,0,0.1,0,0.2-0.1c0.2-0.1,0.4-0.2,0.6-0.2c0.1,0,0.1,0,0.2-0.1c0.1,0,0.1-0.1,0.2-0.1c0.1-0.1,0.3-0.1,0.4-0.2
			c0.1-0.1,0.3-0.1,0.4-0.2c0.1-0.1,0.3-0.1,0.4-0.2c0,0,0.1,0,0.1-0.1c0.2-0.1,0.4-0.2,0.5-0.3c0.3-0.1,0.5-0.3,0.8-0.4
			c0,0,0,0,0,0c0,0,0,0,0,0c0.2-0.1,0.4-0.2,0.6-0.3c0.1-0.1,0.2-0.1,0.3-0.2c0.2-0.1,0.3-0.2,0.5-0.3c0.2-0.1,0.4-0.2,0.6-0.4
			c0.3-0.2,0.5-0.4,0.8-0.6c0.2-0.1,0.3-0.3,0.5-0.4c0.3-0.2,0.6-0.5,0.8-0.7c0.1-0.1,0.2-0.2,0.3-0.3c0,0,0.1-0.1,0.1-0.1
			c0.4-0.4,0.8-0.8,1.2-1.2c4.2-4.2,6.7-9,8.5-14.1c1.5-4.1,2.5-8.3,3.6-12.5c0-0.2,0.1-0.3,0.1-0.5c0.3-1.3,0.7-2.7,0.9-4
			c0.8-4.1,1.5-8.2,2.3-12.3c0.5-2.8,2-4.8,5.5-4.8c0.3,0,0.6,0,0.9,0c0.1,0,0.1,0,0.2,0c0.2,0,0.4,0,0.6,0.1c0,0,0,0,0,0
			c0,0,0,0,0,0c0.1,0,0.2,0.1,0.4,0.1c0.1,0,0.2,0,0.2,0.1c0.2,0,0.3,0.1,0.5,0.2c0,0,0.1,0,0.1,0c0.2,0.1,0.3,0.1,0.5,0.2
			c0,0,0.1,0.1,0.1,0.1c0.1,0,0.2,0.1,0.2,0.1c0,0,0,0,0.1,0c0,0,0,0,0,0c0,0,0.1,0.1,0.1,0.1c0.1,0.1,0.2,0.1,0.2,0.2
			c0,0,0.1,0.1,0.1,0.1c0.1,0.1,0.1,0.1,0.2,0.2c0,0,0,0,0,0c0,0,0.1,0.1,0.1,0.1c0,0.1,0.1,0.1,0.1,0.2c0,0,0,0,0,0.1
			c0,0.1,0.1,0.1,0.1,0.2c0,0.1,0.1,0.2,0.1,0.2c0,0.1,0.1,0.1,0.1,0.2c0,0,0,0,0,0.1c0,0.1,0,0.1,0.1,0.2c0,0.1,0.1,0.1,0.1,0.2
			c0,0.1,0.1,0.2,0.1,0.3c0,0.1,0,0.1,0.1,0.2c0,0.1,0,0.1,0.1,0.2c0,0,0,0,0,0c0,0.1,0,0.1,0,0.2c0,0,0,0,0,0c0,0.1,0,0.2,0.1,0.2
			c0,0,0,0.1,0,0.1c0,0,0,0.1,0,0.1c0,0.1,0,0.2,0.1,0.3c0,0.1,0,0.1,0,0.2c0,0.1,0,0.2,0.1,0.3c0,0.1,0,0.1,0,0.2
			c0,0.2,0,0.3,0.1,0.5c0.2,1.6,0.4,3.2,0.6,4.9c0.1,1.6,0.2,3.1,0.2,4.7c-0.1,5.9-0.7,11.8-1.6,17.5c-0.8,5-1.9,9.9-3.3,14.8
			c-0.1,0.5-0.3,1.1-0.3,1.6c0,0.1,0,0.2,0,0.3c0,0.1,0,0.1,0,0.2c0,0.1,0,0.3,0,0.4c0,0.2-0.1,0.4-0.1,0.6c0,0,0,0.1,0,0.1
			c0,0.1,0,0.3,0,0.4c0,0.3,0,0.6,0,0.9c0,0.2,0,0.4,0.1,0.6c0,0.3,0.1,0.5,0.1,0.8c0,0.1,0,0.1,0,0.2c0,0.1,0.1,0.3,0.1,0.4
			c0.1,0.2,0.1,0.5,0.2,0.7c0,0,0,0,0,0c0,0.1,0,0.1,0.1,0.2c0,0.1,0.1,0.2,0.1,0.4c0.1,0.2,0.2,0.5,0.3,0.7
			c0.1,0.2,0.1,0.3,0.2,0.4c0,0,0,0,0,0.1c0.1,0.2,0.2,0.4,0.4,0.7c0.1,0.1,0.1,0.2,0.2,0.3c0,0.1,0.1,0.1,0.1,0.2
			c0.1,0.1,0.2,0.2,0.3,0.3c0.1,0.1,0.2,0.2,0.2,0.3c0,0.1,0.1,0.1,0.1,0.2c0.1,0.1,0.1,0.2,0.2,0.2c0.2,0.2,0.3,0.3,0.5,0.5
			c0.1,0.1,0.1,0.1,0.2,0.2c0.1,0.1,0.2,0.2,0.3,0.3c0.3,0.3,0.7,0.6,1.1,0.9c0,0,0.1,0,0.1,0.1c0,0,0.1,0,0.1,0.1
			c0.3,0.2,0.7,0.4,1,0.6c0.1,0.1,0.3,0.2,0.5,0.2c0,0,0.1,0,0.1,0.1c0.2,0.1,0.5,0.2,0.7,0.4c0.1,0.1,0.3,0.1,0.4,0.2
			c0.1,0,0.1,0.1,0.2,0.1c0.2,0.1,0.4,0.2,0.6,0.2c0.1,0,0.2,0.1,0.3,0.1c0.2,0.1,0.4,0.1,0.7,0.2c0.3,0.1,0.6,0.2,0.9,0.3
			c0.2,0.1,0.5,0.1,0.7,0.2c0.4,0.1,0.7,0.1,1.1,0.2c0.2,0,0.3,0.1,0.5,0.1c0.6,0.1,1.1,0.1,1.7,0.2c4.8,0.4,9.7,0.8,14.5,1.2
			c1,0.1,1.9,0.1,2.9,0.1c0,0,0,0,0,0c0.9,0,1.8,0,2.6-0.1c0.9-0.1,1.7-0.2,2.5-0.3c5-0.8,9.3-2.9,13.1-6.3c0.3-0.3,0.5-0.5,0.8-0.8
			c0.5-0.5,1-1.1,1.4-1.6s0.9-1.1,1.2-1.7c1.2-1.7,2.1-3.6,2.9-5.4c0.1-0.1,0.1-0.2,0.1-0.3c0.2-0.4,0.4-0.9,0.6-1.3
			c0.1-0.2,0.1-0.3,0.2-0.5c0.3-0.8,0.7-1.6,1-2.4c0-0.1,0.1-0.2,0.1-0.3c4.5-10.4,7-21.4,8.4-32.5c0-0.1,0-0.1,0-0.2
			c0-0.3,0.1-0.5,0.1-0.8c0.5-2.7,1.9-5,5.4-5c0.2,0,0.4,0,0.7,0c0.3,0,0.6,0.1,0.9,0.1c0,0,0.1,0,0.1,0c0.1,0,0.2,0,0.2,0.1
			c0,0,0.1,0,0.1,0c0.1,0,0.2,0,0.3,0.1c0.1,0,0.2,0.1,0.3,0.1c0.1,0,0.1,0,0.2,0.1c0.1,0,0.1,0,0.2,0.1c0.2,0.1,0.4,0.2,0.6,0.3
			c0,0,0,0,0.1,0c0.2,0.1,0.3,0.2,0.5,0.3c0,0,0,0,0,0c0,0,0.1,0.1,0.1,0.1c0.1,0.1,0.2,0.2,0.3,0.2c0.1,0,0.1,0.1,0.2,0.2
			c0,0,0,0,0,0c0.1,0.1,0.2,0.2,0.2,0.2c0.1,0.1,0.1,0.1,0.1,0.2c0.1,0.1,0.1,0.2,0.2,0.3c0,0.1,0.1,0.1,0.1,0.2
			c0.1,0.1,0.1,0.2,0.2,0.3c0,0.1,0.1,0.1,0.1,0.2c0,0.1,0.1,0.2,0.1,0.3c0,0,0,0.1,0,0.1c0,0,0,0.1,0,0.1c0,0,0,0.1,0,0.1
			c0,0.1,0.1,0.1,0.1,0.2c0,0,0,0.1,0,0.1c0,0,0,0.1,0,0.1c0,0.1,0,0.1,0,0.2c0,0.1,0,0.1,0,0.2c0,0.1,0,0.2,0.1,0.3
			c0,0.1,0,0.2,0.1,0.4c0,0,0,0,0,0c0,0.1,0,0.1,0,0.2c0,0.1,0,0.3,0.1,0.4c0,0.1,0,0.1,0,0.2c0,0,0,0,0,0c0,0,0,0,0,0
			c0,0.1,0,0.3,0,0.4c0,0,0,0.1,0,0.1c0,0,0,0.1,0,0.1c0,0.1,0,0.3,0,0.4c0,0.1,0,0.2,0,0.2c0.2,3.1,0.2,6.3,0.2,9.4
			c0,0.9,0,1.7-0.1,2.6c0,1.4-0.1,2.9-0.2,4.3c-0.2,2.6-0.5,5.3-0.8,7.9c-0.1,1-0.3,1.9-0.5,2.9c-0.6,3.4-1.3,6.7-2.3,10.1
			c-0.1,0.5-0.3,1-0.3,1.5c0,0,0,0.1,0,0.1c0,0.1,0,0.2,0,0.4c0,0.3-0.1,0.7-0.1,1c0,0.1,0,0.1,0,0.2c0,0.1,0,0.2,0,0.4
			c0,0.2,0,0.4,0,0.6c0,0.1,0,0.2,0,0.3c0,0.2,0,0.4,0.1,0.6c0,0,0,0.1,0,0.1c0,0.2,0.1,0.5,0.1,0.7c0,0.1,0,0.2,0.1,0.3
			c0,0.1,0,0.2,0,0.2c0.1,0.3,0.1,0.5,0.2,0.8c0.1,0.2,0.1,0.4,0.2,0.6c0.1,0.1,0.1,0.3,0.2,0.4c0,0.1,0.1,0.2,0.1,0.3
			c0.1,0.2,0.2,0.4,0.2,0.5c0,0.1,0.1,0.1,0.1,0.2c0.1,0.2,0.2,0.4,0.3,0.5c0,0.1,0.1,0.1,0.1,0.2c0.1,0.1,0.1,0.2,0.2,0.3
			c0.1,0.2,0.2,0.3,0.4,0.5c0,0.1,0.1,0.1,0.1,0.2c0,0,0.1,0.1,0.1,0.1c0.1,0.1,0.1,0.2,0.2,0.3c0.1,0.1,0.3,0.3,0.4,0.4
			c0.1,0.1,0.2,0.3,0.4,0.4c0,0,0.1,0.1,0.1,0.1c0,0,0.1,0.1,0.1,0.1c0.3,0.3,0.7,0.6,1.1,0.9c0,0,0.1,0.1,0.1,0.1
			c0.1,0,0.1,0.1,0.2,0.1c0.1,0.1,0.2,0.1,0.3,0.2c0.2,0.1,0.4,0.3,0.5,0.4c0.1,0,0.1,0.1,0.2,0.1c0.1,0.1,0.2,0.1,0.3,0.2
			c0.1,0,0.1,0.1,0.2,0.1c0.2,0.1,0.4,0.2,0.6,0.3c0.1,0.1,0.3,0.1,0.4,0.2c0,0,0.1,0,0.1,0.1c0.1,0,0.1,0.1,0.2,0.1
			c0.2,0.1,0.4,0.2,0.6,0.3c0.2,0.1,0.4,0.1,0.6,0.2c0.1,0,0.2,0.1,0.4,0.1c0.2,0.1,0.4,0.1,0.6,0.2c0.1,0,0.2,0,0.3,0.1
			c0.1,0,0.2,0.1,0.4,0.1c0.3,0.1,0.7,0.1,1.1,0.2c0,0,0,0,0.1,0c0.1,0,0.3,0,0.4,0.1c0.5,0.1,1.1,0.1,1.7,0.1c0.8,0,1.6,0,2.4,0
			c0.2,0,0.4,0,0.6,0c7.8,0,15.1-1.2,21.8-3.9c0.9-0.4,1.9-0.8,2.8-1.2c3.8-1.8,7.3-4.1,10.5-7c1.7-1.6,3.2-3.2,4.5-5
			c3.5-4.9,5.1-10.6,5.9-16.5c0.1-0.4,0.1-0.8,0.1-1.2c0-0.3,0.1-0.5,0.2-0.8c0.5-1.6,1.8-2.6,3.7-3.1c1-0.2,2.2-0.4,3.6-0.4
			c13.5,0,42.1,11.3,57.3,11.3h0c1.8,0,3.4-0.2,4.8-0.5c0.5-0.1,0.9-0.3,1.3-0.4c0.2-0.1,0.5-0.2,0.7-0.3c6.2-3.2,12.7-6.1,19.4-8.5
			c20.7-7.1,38.9-19.5,54.6-35.1c0,0,0,0,0,0c1.6-1.6,3.1-3.2,4.7-4.9c0.9-1,1.9-2,2.8-3.1c1.3-1.5,2.6-3,3.9-4.6
			c0.3-0.3,0.5-0.6,0.8-0.9c1.9-2.3,3.8-4.7,5.6-7.1c0.4-0.5,0.7-1,1.1-1.5c2.6-3.6,5.1-7.2,7.5-10.9c1.9-3,3.8-6,5.6-9.1
			c2.7-4.6,5.2-9.4,7.6-14.1c1.3-2.7,2.6-5.4,3.8-8.1c0.5-1.1,1-2.2,1.4-3.3c0.9-2.2,1.8-4.4,2.7-6.5c0.4-1.1,0.9-2.2,1.3-3.3
			c1.7-4.4,3.2-8.8,4.7-13.2c0.7-2.2,1.4-4.4,2-6.6s1.3-4.4,1.8-6.6c0.9-3.3,1.7-6.6,2.4-9.9c0.5-2.4,1-4.8,1.4-7.1
			c0.3-1.8,0.6-3.6,0.9-5.4c0.1-0.3,0.1-0.7,0.2-1c0.6-4.1,1.2-8.2,1.6-12.3c0.1-0.7,0.1-1.4,0.2-2.1c0.4-5,0.7-10,0.9-14.9
			c0,0,0-0.1,0-0.2c0.1-5,0.1-10.1,0-15.1c0-0.1,0-0.3,0-0.4c-1.9-67.4-27-136-68.9-191.7C1126,677.1,1120.2,669.9,1114.1,663z
			 M616.6,732.7c-3-4-5-8.1-6.2-12.3c-1.3-4.7-1.7-9.5-1.4-14.3c0.1-1.5,0.2-2.9,0.5-4.3c1.2-7.9,4.7-15,11.2-21
			c6.4-5.8,14.5-9.8,24.3-11.9c4.5-1,8.9-1.4,13.4-1.4c3.9,0,7.8,0.4,11.7,1.1c1.9,0.4,3.8,0.8,5.8,1.3c1.9,0.5,3.8,1.1,5.8,1.9
			c8.7,3.2,15.9,7.8,21.7,13.7c0.8,0.8,1.6,1.7,2.4,2.6c0.7,0.8,1.3,1.5,1.9,2.3c9,11.5,11.4,23.6,8.2,36c-2.1,7.9-5.6,15-11.7,20.9
			c-0.9,0.8-1.8,1.7-2.8,2.5c-0.7,0.6-1.4,1.1-2.1,1.6c-0.5,0.4-1.1,0.7-1.6,1.1c-2.2,1.4-4.4,2.6-6.8,3.6c-1.4,0.6-2.8,1.1-4.3,1.5
			c-0.6,0.2-1.2,0.3-1.8,0.5c-1.8,0.4-3.6,0.8-5.5,1c-0.2,0-0.3,0-0.5,0.1c-1.9,0.2-3.9,0.3-5.9,0.3c-0.4,0-0.8,0-1.1,0
			c-1.8,0-3.6-0.1-5.5-0.3c-0.5,0-0.9-0.1-1.4-0.2c-1.9-0.2-3.8-0.5-5.6-0.8c-17.6-3.3-31.5-11.6-41.6-24.3
			C617.1,733.4,616.9,733,616.6,732.7z M744,993.4c-1.7,6.2-4.1,11.8-8.1,16.9c-1.1,1.5-2.4,2.9-3.8,4.2c-0.8,0.8-1.7,1.6-2.6,2.4
			c-4.1,3.3-8.6,5.8-13.6,7.4c-0.9,0.3-1.7,0.5-2.6,0.8c-1.4,0.4-2.8,0.7-4.3,0.9c-0.6,0.1-1.3,0.2-2,0.3c-2,0.2-4,0.3-6.1,0.3h0
			c-0.1,0-0.1,0-0.2,0c-1.3,0-2.7-0.1-4-0.2c-0.8-0.1-1.6-0.1-2.4-0.2c-1.2-0.1-2.4-0.3-3.5-0.4c-1.2-0.2-2.3-0.4-3.4-0.6
			c-7.4-1.4-14.1-3.6-20.1-6.7c-6.6-3.3-12.4-7.7-17.4-12.9c-1.4-1.4-2.7-3-3.9-4.5c-0.3-0.4-0.7-0.8-1-1.2
			c-5.2-6.9-7.3-14.1-7.6-21.5c-0.1-1.7,0-3.4,0.1-5c0.6-9.6,3.9-18.3,11.7-25.3c0.5-0.5,1.1-0.9,1.6-1.4
			c6.2-5.1,13.7-8.6,22.6-10.5c4.5-1,8.9-1.4,13.4-1.4c1,0,2,0,2.9,0.1c2.9,0.1,5.9,0.5,8.8,1c2.3,0.4,4.6,1,6.9,1.7
			c1.5,0.4,3,0.9,4.6,1.5c9.9,3.6,17.9,9.2,24.1,16.3c1,1.2,2,2.4,2.9,3.6c0.5,0.6,0.9,1.3,1.3,1.9c5,7.5,7.3,15.1,7.2,22.9
			C745.3,986.9,744.8,990.1,744,993.4z M774.2,867.5c-2,7.3-4.7,14.1-8.8,20.3c-3.1,4.8-7.1,9.3-12,13.3
			c-11.2,9.1-24.9,13.8-40.9,13.8c-3.1,0-6.2-0.2-9.4-0.5c-3.4-0.4-6.7-0.9-10-1.5c-25.9-4.8-46.3-17.2-60.9-36.4
			c-9.1-12-11.6-25-10.9-38.1c0.8-13.8,5.6-26.2,16.8-36.3c1.4-1.3,2.9-2.5,4.5-3.7c4.9-3.7,10.4-6.8,16.5-9.2
			c1-0.4,1.9-0.7,2.9-1.1c0.5-0.2,1.1-0.4,1.6-0.6c3-1,6-1.8,9.3-2.5c0.8-0.2,1.6-0.3,2.4-0.5c5.6-1.1,11.2-1.6,16.8-1.6
			c4.2,0,8.4,0.3,12.6,0.9c1.4,0.2,2.8,0.4,4.2,0.7c5.5,1,11,2.6,16.5,4.6c2.6,0.9,5.1,2,7.5,3.1c10.8,5.1,19.8,11.9,27,20.3
			c8.2,9.5,13.1,19.2,15.2,29.1c0.3,1.4,0.5,2.9,0.7,4.3c0,0.3,0.1,0.5,0.1,0.8C776.6,853.6,776,860.5,774.2,867.5z M1156.8,996.7
			c-0.1,1.2-0.3,2.3-0.5,3.4c-0.2,1.1-0.4,2.3-0.7,3.4c-0.6,2-1.2,3.9-1.9,5.8c-0.6,1.7-1.3,3.3-2,4.9c-1.9,4.2-4.4,8.2-7.8,11.8
			c-0.2,0.2-0.4,0.4-0.6,0.6c-0.8,0.8-1.6,1.6-2.5,2.3c-6.1,5.2-13.5,8.5-22.8,8.5c-1.3,0-2.6-0.1-4-0.2c-1.5-0.1-3-0.3-4.4-0.6
			c-1.3-0.2-2.6-0.6-3.8-0.9c-1.6-0.4-3.1-1-4.5-1.5c-7.4-3.1-13.2-8.1-17.6-14.7c-2.9-4.3-4.6-8.7-5.6-13.1
			c-0.3-1.4-0.5-2.8-0.7-4.2c-0.4-3.3-0.5-6.7-0.3-10.1c0.2-4.2,0.7-8.2,1.6-12.2c0.2-0.8,0.4-1.7,0.7-2.5c0.3-1,0.6-2,1-3
			c0.5-1.3,1-2.5,1.6-3.8c1-2.1,2.2-4,3.5-5.8c0.7-0.9,1.4-1.8,2.2-2.6c0,0,0,0,0,0c0.9-1,1.9-1.9,3-2.8c6.5-5.3,15.2-8,25.4-8
			c1.4,0,2.7,0.1,4.1,0.2c0.5,0,1.1,0.1,1.6,0.1c1.4,0.1,2.7,0.3,4,0.5c6.2,1.2,11.4,3.7,15.8,7.2c0.8,0.7,1.6,1.3,2.4,2.1
			c0.5,0.5,1,0.9,1.4,1.4c0.8,0.8,1.5,1.7,2.2,2.5c0.8,1,1.6,2.1,2.4,3.2c0.7,1,1.3,2,1.9,3.1c0.4,0.7,0.7,1.3,1.1,2
			c0,0,0,0.1,0,0.1C1156.8,981.3,1157.8,988.9,1156.8,996.7z M1180.3,830.1c4.6,6.6,7.8,13.3,9.8,20.1c0.6,1.9,1,3.9,1.4,5.9
			s0.7,3.9,0.8,5.9c0.5,4.9,0.4,9.9-0.2,14.9c-0.3,2.3-0.6,4.7-1,7c-0.2,1-0.4,2-0.6,3.1c-0.1,0.5-0.2,0.9-0.4,1.4
			c-0.8,2.6-1.6,5.2-2.5,7.8c-0.6,1.7-1.2,3.4-1.9,5.1c-1.4,3.4-2.9,6.7-4.6,9.9c-0.4,0.8-0.9,1.6-1.4,2.4c-1.9,3.2-4,6.2-6.5,9.2
			c-1.2,1.5-2.6,2.9-4,4.3c-2.1,2-4.2,3.9-6.5,5.7c-1.1,0.8-2.2,1.6-3.3,2.3c-1,0.7-2,1.3-3,1.9c-0.7,0.4-1.5,0.9-2.3,1.3
			c-8,4.3-17.3,6.8-28.1,6.8c-1.6,0-3.3-0.1-5-0.2c-0.7-0.1-1.5-0.1-2.3-0.2c-1-0.1-2.1-0.2-3.1-0.4c-1.5-0.2-3-0.4-4.5-0.7
			c-15.5-2.9-27.7-9.8-37.2-19.8c-1.7-1.8-3.3-3.6-4.8-5.6c-0.6-0.8-1.3-1.7-1.9-2.5c-0.3-0.4-0.5-0.7-0.8-1
			c-6.5-9.4-9.7-19.1-11-29c-0.2-1.5-0.4-3.1-0.5-4.6c-0.1-2.1-0.2-4.2-0.2-6.3c0-1.1,0-2.2,0-3.3c0-0.9,0.1-1.7,0.1-2.6
			c0.4-8.3,1.4-16.4,3.7-24.3c0.3-1,0.6-2,0.9-3c0-0.1,0.1-0.2,0.1-0.3c1-2.8,2.1-5.6,3.4-8.4c10.4-21.4,30.9-31.9,58-31.9
			c2.8,0,5.8,0.1,8.7,0.4c0.6,0,1.1,0.1,1.7,0.1c2.3,0.2,4.6,0.5,6.8,0.9c9.7,1.8,18.1,5.5,25.3,10.6
			C1170.2,817.7,1175.7,823.5,1180.3,830.1z M1146.4,719.8c6.2,8.3,8.2,17,7.1,25.9c-0.3,2.1-0.5,4.3-1.1,6.3
			c-0.7,2.3-1.5,4.6-2.4,6.8c-0.3,0.6-0.5,1.3-0.8,1.9c-0.7,1.7-1.6,3.3-2.6,4.9c-0.1,0.1-0.1,0.2-0.2,0.4c-1.6,2.6-3.6,5-6,7.3
			c-4.5,4.2-9.9,7.4-16.4,8.8c-0.4,0.1-0.8,0.2-1.3,0.3c-0.9,0.2-1.8,0.3-2.7,0.4c-1.3,0.1-2.7,0.2-4.2,0.2c-1.5,0-3-0.1-4.6-0.2
			c-0.4,0-0.7-0.1-1.1-0.1c-1.1-0.1-2.2-0.3-3.3-0.5c-5-0.9-9.5-2.6-13.4-4.8c-5.1-2.9-9.3-6.8-12.7-11.4c-4.5-6.2-6.4-12.5-6.9-19
			c-0.2-2.1-0.2-4.2-0.1-6.4c0.3-6.9,1.4-13.5,4.5-19.8c0.1-0.1,0.2-0.3,0.2-0.4c4-7.7,10.7-12.8,19.4-15.2c2.4-0.7,5-1.1,7.7-1.4
			c1.8-0.2,3.7-0.3,5.6-0.3c2.1,0,4.4,0.1,6.6,0.3c0.2,0,0.4,0.1,0.6,0.1c0.7,0.1,1.4,0.2,2.2,0.3c0.4,0.1,0.8,0.1,1.2,0.2
			C1132.8,706.4,1140.7,712.1,1146.4,719.8z"/>
		<path class="st3" d="M781.3,295.1c0.3,0.5,0.6,1,1,1.4c1,1.5,2,3.1,3,4.6c0.2,0.3,0.4,0.6,0.6,0.9c1.2,1.9,2.4,3.8,3.6,5.7
			c0,0,0,0,0,0c0.2,0.3,0.3,0.5,0.5,0.8h0c1.1,1.7,2.1,3.5,3.1,5.2c0,0,0,0,0,0c0.1,0.3,0.3,0.5,0.4,0.8c0,0,0,0,0,0
			c0.9,1.5,1.8,3,2.6,4.6c1.4,2.5,2.9,5.1,4.2,7.6c0,0,0,0,0,0c11.2,20.9,19.9,42.3,26,63.6c0,0,0,0,0,0c0.8,2.8,1.5,5.5,2.2,8.3
			c22,6.1,71.1,21.7,112.5,49.7c-8-15.5-16.8-31.7-26.3-48.1c-1.2-2.1-2.5-4.2-3.7-6.3c-6.6-11.1-13.4-22.3-20.6-33.3c0,0,0,0,0,0
			c0,0,0,0,0,0c-1-1.6-2.1-3.2-3.1-4.7c-0.4-0.6-0.8-1.2-1.2-1.8c-0.2-0.3-0.3-0.5-0.5-0.8c-1.3-1.9-2.6-3.9-3.9-5.8
			c-0.3-0.4-0.6-0.8-0.9-1.3c0,0,0-0.1-0.1-0.1c-0.6-0.9-1.2-1.8-1.9-2.7c-0.6-0.8-1.1-1.6-1.7-2.4c0,0,0,0,0,0
			c-0.4-0.5-0.8-1.1-1.1-1.6c0,0,0,0,0,0c-1.1-1.6-2.3-3.2-3.4-4.8c0,0,0,0,0,0c-0.4-0.6-0.9-1.3-1.3-1.9c0,0,0,0,0,0
			c-1.1-1.5-2.2-3-3.3-4.5c0,0,0,0,0,0c-0.5-0.7-1-1.4-1.5-2.1c0,0,0,0,0,0c-0.6-0.9-1.3-1.7-1.9-2.6c-0.4-0.6-0.9-1.1-1.3-1.7
			c-0.5-0.7-1-1.4-1.6-2.1c-0.8-1.1-1.7-2.2-2.5-3.3c-0.3-0.4-0.6-0.8-0.9-1.2c0,0,0,0,0,0c-0.5-0.6-1-1.3-1.4-1.9c0,0,0,0,0,0
			c-1.6-2.1-3.2-4.1-4.8-6.1c0,0,0,0,0,0c0,0,0,0,0,0c-1.1-1.3-2.1-2.6-3.1-3.9c-0.2-0.2-0.4-0.5-0.6-0.7c-0.4-0.5-0.9-1.1-1.3-1.6
			c-0.6-0.7-1.1-1.3-1.7-2c-0.2-0.2-0.4-0.4-0.6-0.7c0,0,0,0-0.1-0.1c-0.6-0.7-1.2-1.5-1.8-2.2c-0.4-0.4-0.7-0.9-1.1-1.3
			c0,0,0,0,0,0c-0.2-0.3-0.4-0.5-0.7-0.8c-0.8-0.9-1.5-1.8-2.3-2.6c-0.2-0.2-0.4-0.4-0.5-0.6c-0.9-1.1-1.9-2.1-2.8-3.1
			c-0.2-0.2-0.3-0.4-0.5-0.6c-1-1-1.9-2.1-2.8-3.1c0,0,0,0,0,0c-0.9-1-1.9-2-2.8-2.9c-0.2-0.2-0.3-0.3-0.5-0.5
			c-0.9-0.9-1.8-1.8-2.6-2.7c-0.2-0.2-0.3-0.3-0.5-0.5c-0.3-0.3-0.6-0.6-0.9-0.9c0,0,0,0,0,0c-0.6-0.6-1.1-1.1-1.7-1.6c0,0,0,0,0,0
			c-0.6-0.6-1.1-1.1-1.7-1.7c-0.3-0.3-0.6-0.6-0.9-0.9c-0.2-0.1-0.3-0.3-0.5-0.4c-0.1-0.1-0.1-0.1-0.2-0.2c-0.7-0.6-1.3-1.2-1.9-1.8
			c-0.1-0.1-0.2-0.2-0.3-0.3c-0.1,0-0.1-0.1-0.2-0.1c-0.9-0.8-1.7-1.6-2.6-2.3c0,0-0.1-0.1-0.1-0.1c0,0,0,0-0.1,0
			c-0.2-0.1-0.3-0.3-0.5-0.4c-0.6-0.5-1.2-1.1-1.8-1.6c0,0-0.1-0.1-0.1-0.1c-0.1-0.1-0.3-0.2-0.4-0.4c-0.1-0.1-0.1-0.1-0.2-0.2
			c-0.6-0.5-1.3-1-1.9-1.6c-0.1-0.1-0.2-0.1-0.2-0.2c0,0-0.1-0.1-0.1-0.1c-0.8-0.7-1.6-1.3-2.4-1.9c0,0-0.1,0-0.1-0.1
			c0,0,0,0-0.1-0.1c-0.5-0.4-1-0.8-1.5-1.2c-0.2-0.2-0.5-0.3-0.7-0.5c-0.1-0.1-0.3-0.2-0.4-0.3c-0.6-0.5-1.2-0.9-1.8-1.3
			c-0.1-0.1-0.2-0.1-0.3-0.2c-0.1-0.1-0.2-0.2-0.4-0.3c-0.1-0.1-0.3-0.2-0.4-0.3c-0.5-0.3-0.9-0.7-1.4-1c-0.1-0.1-0.2-0.1-0.2-0.2
			c0,0,0,0-0.1-0.1c-0.5-0.3-0.9-0.6-1.4-0.9c-0.2-0.1-0.4-0.3-0.6-0.4c-0.1-0.1-0.2-0.2-0.4-0.2c-0.4-0.3-0.8-0.5-1.2-0.8
			c-0.2-0.1-0.4-0.3-0.6-0.4c0,0,0,0,0,0c-0.1-0.1-0.2-0.1-0.3-0.2c-0.6-0.4-1.2-0.7-1.8-1.1c0,0-0.1,0-0.1,0c0,0-0.1,0-0.1-0.1
			c-0.2-0.1-0.3-0.2-0.5-0.3c-0.4-0.2-0.8-0.4-1.2-0.7c-0.1-0.1-0.2-0.1-0.3-0.2c-0.1,0-0.2-0.1-0.2-0.1c-0.3-0.1-0.5-0.3-0.8-0.4
			c-0.2-0.1-0.5-0.2-0.7-0.3c-0.1,0-0.2-0.1-0.3-0.1c-0.2-0.1-0.3-0.2-0.5-0.2c-0.2-0.1-0.5-0.2-0.7-0.3c-0.1-0.1-0.3-0.1-0.4-0.2
			c0,0-0.1,0-0.1,0c-0.3-0.2-0.7-0.3-1-0.4c-0.2-0.1-0.4-0.2-0.6-0.2c0,0,0,0,0,0c-0.1,0-0.2-0.1-0.3-0.1c-0.5-0.2-1-0.4-1.5-0.6
			c0,0-0.1,0-0.1,0c-0.1,0-0.2-0.1-0.3-0.1c-0.4-0.1-0.8-0.3-1.2-0.4c0,0-0.1,0-0.1,0c-0.1,0-0.2,0-0.3-0.1
			c-0.2-0.1-0.4-0.1-0.6-0.2c-0.2,0-0.4-0.1-0.5-0.2c-0.1,0-0.2,0-0.3-0.1c-0.1,0-0.3-0.1-0.4-0.1c-0.2,0-0.4-0.1-0.6-0.1
			c-0.1,0-0.2-0.1-0.3-0.1c-0.1,0-0.1,0-0.2,0c-0.2,0-0.4-0.1-0.6-0.1c-0.2,0-0.3-0.1-0.5-0.1c0,0-0.1,0-0.1,0c0,0-0.1,0-0.1,0
			c-0.4-0.1-0.8-0.1-1.2-0.1c0,0,0,0-0.1,0c-0.1,0-0.1,0-0.2,0c-0.4,0-0.7,0-1.1,0c-0.1,0-0.2,0-0.2,0c0,0,0,0,0,0
			c-0.1,0-0.2,0-0.3,0c-0.1,0-0.2,0-0.3,0c-0.1,0-0.2,0-0.3,0c-0.2,0-0.4,0-0.5,0.1c-0.1,0-0.1,0-0.2,0c0,0,0,0,0,0c0,0-0.1,0-0.1,0
			c-0.3,0-0.5,0.1-0.8,0.1c-0.1,0-0.1,0-0.2,0c0,0,0,0-0.1,0c-0.1,0-0.2,0-0.2,0.1c-0.1,0-0.1,0-0.2,0.1c-0.1,0-0.1,0-0.2,0.1
			c-0.2,0.1-0.4,0.1-0.5,0.2c0,0-0.1,0-0.1,0c0,0,0,0,0,0c-0.2,0.1-0.4,0.2-0.6,0.3c-0.1,0-0.1,0.1-0.2,0.1c0,0-0.1,0-0.1,0.1
			c-0.1,0-0.1,0.1-0.2,0.1c0,0-0.1,0-0.1,0.1c-0.1,0-0.1,0.1-0.2,0.1c-0.2,0.1-0.4,0.2-0.5,0.4c0,0,0,0,0,0
			c-0.2,0.2-0.4,0.3-0.6,0.5c0,0,0,0-0.1,0.1c-0.4,0.4-0.8,0.9-1.1,1.4c-4.5,6.9-1.8,23.6,10.4,41
			C778.9,291.5,780.1,293.3,781.3,295.1z"/>
	</g>
	<g>
		<path d="M1131.7,801.5C1131.7,801.5,1131.7,801.5,1131.7,801.5c-0.7-0.1-1.2-0.1-1.8-0.1c-3-0.2-5.9-0.4-8.7-0.4
			c-27.1,0-47.6,10.5-58,31.9c-1.3,2.7-2.5,5.5-3.4,8.4c0,0.1-0.1,0.2-0.1,0.3c-0.3,1-0.6,2-0.9,3c-0.9,3-1.5,5.9-2.1,9
			c-0.9,5-1.4,10.1-1.6,15.3c0,0.9-0.1,1.7-0.1,2.6c0,1.1-0.1,2.2,0,3.3c0,2.1,0.1,4.2,0.2,6.3c0.1,1.5,0.3,3.1,0.5,4.6
			c0.3,2.5,0.8,4.9,1.3,7.4c1.8,7.3,4.8,14.6,9.7,21.6c0.2,0.4,0.5,0.7,0.8,1c0.6,0.9,1.2,1.7,1.9,2.5c1.5,1.9,3.1,3.8,4.8,5.6
			c9.5,9.9,21.7,16.9,37.2,19.8c1.5,0.3,2.9,0.5,4.5,0.7c1,0.1,2,0.3,3.1,0.4c0.8,0.1,1.5,0.1,2.3,0.2c1.7,0.1,3.3,0.2,5,0.2
			c10.8,0,20-2.5,28.1-6.8c0.8-0.4,1.5-0.8,2.3-1.3c1-0.6,2-1.2,3-1.9c1.1-0.7,2.2-1.5,3.3-2.3c0.6-0.4,1.1-0.9,1.7-1.3
			c1.7-1.4,3.3-2.8,4.8-4.3c0.7-0.7,1.4-1.4,2.1-2.1s1.3-1.4,1.9-2.2c2.5-2.9,4.6-6,6.5-9.2c0.5-0.8,0.9-1.6,1.4-2.4
			c1.8-3.2,3.3-6.5,4.6-9.9c0.7-1.7,1.3-3.4,1.9-5.1c0.9-2.6,1.7-5.2,2.5-7.8c0.1-0.5,0.3-0.9,0.4-1.4c0.3-1,0.5-2,0.6-3.1
			c0.4-2.3,0.7-4.7,1-7c0.5-3.8,0.6-7.5,0.5-11.2c0-1.2-0.1-2.5-0.2-3.7c-0.2-2-0.5-3.9-0.8-5.9s-0.8-3.9-1.4-5.9
			c-2-6.8-5.2-13.5-9.8-20.1c-4.6-6.6-10.1-12.4-16.6-17c-0.9-0.6-1.8-1.3-2.7-1.8c-1.9-1.2-3.8-2.3-5.8-3.3
			c-5.1-2.5-10.6-4.4-16.7-5.5C1136.3,802,1134,801.7,1131.7,801.5z M1160.9,844.3c6.6,9.4,9.1,19.4,7.7,30.6l-0.1,0.8
			c-0.3,2.5-0.6,4.9-1.2,6.8c-2.8,9.5-6.5,19.4-14.3,27.1c-8,7.8-16.7,11.5-27.5,11.5c-1.1,0-2.3-0.1-3.5-0.2
			c19.1-9.8,29.1-30,31.1-47.9c1.7-14.9-4.9-33-18-46.4C1145.7,828.9,1154.3,834.8,1160.9,844.3z"/>
		<path d="M1305.3,811.1c-4.8-27-12.3-53.9-22.2-80c-19-50-47.2-97.4-81.9-137.5c-38.6-52.9-83.2-99.8-132.4-139.4
			c-0.5-0.4-1-0.8-1.6-1.2c-27.3-59.3-71.7-144.8-128.1-215.3c-23.1-28.8-46-51.8-68.1-68.4c-31.6-23.6-63.9-35.6-95.9-35.6
			c-26.7,0-51.9,8.3-72.8,23.9c-23.4,17.5-39.6,43.3-45.7,72.7c-3.4,16.5-3.6,33.7-0.6,51.3c0.9,5.2,2.1,10.4,3.5,15.6
			c-19.4-1.4-39-2.1-58.6-2.1c-46.5,0-93.5,4.1-138.8,12c-15.8-19.3-31.9-37.8-48.1-55.2c-37.3-40-75.7-74.7-114-103.2
			c-25.7-19.1-48.3-33.2-69-42.9c-26-12.3-50-18.2-73.5-18.2c0,0,0,0,0,0c-17.5,0-34.2,3.3-49.8,9.9c-16.3,6.9-31.1,17.4-42.8,30.5
			c-16,17.8-26.5,40.2-30.4,64.7c-2.2,13.7-2.3,28.2-0.4,43.1c2.3,18.6,7.9,38.7,16.6,59.7c15.2,36.8,38.8,74.1,65,102.1
			c4.5,4.8,18.8,22.3,39,67c-17.2,17.7-32.8,36.1-46.9,54.8C82,553.7,61.6,590,47,627.2c-28.4,72.3-34.7,147.7-18.1,217.8
			c13,55.1,39.8,105.2,77.5,144.9c38.4,40.5,86.7,68.8,139.7,82c8.6,2.3,18,4.2,28.7,5.6c0.5,0.1,1.1,0.2,1.6,0.2
			c0.7,0.1,1.4,0.2,2.1,0.3c22.7,2.8,51.7,4,96.1,4c13.1,0,26.4-0.1,39.3-0.2c1.8,0,3.6,0,5.4,0c4,10.2,9.3,19.9,15.7,29
			c14.6,20.3,34.7,36.1,57.8,45.6c4.3,20.2,12.8,40,24.9,57.6c18,26.1,42.5,45.9,70.7,57.3c12.1,4.9,24.7,7.9,37.8,9.1
			c15,20.7,30.8,38.1,47.9,52.6c38.5,32.7,83.4,50,129.7,50c33.1,0,65.8-8.7,97.1-25.7c21.7-11.8,42.3-27.3,62.9-47.3
			c31-30.1,54.9-63.9,70.7-86.2c3.3-4.6,7.8-11,9.4-13c1.6-2,3.2-4,4.6-6c2,0.1,4,0.1,6.1,0.1c20.8,0,40.2-4.6,57.7-13.6
			c0,0,0.1,0,0.1-0.1c3.1-1.6,4.4-2.1,4.6-2.1c56.7-19.4,105.5-60.1,141.3-117.7c28.4-45.7,46.8-99.5,51.8-151.8
			c0.8-8.3,1.3-16.7,1.5-24.9C1312.4,867.2,1310.3,839,1305.3,811.1z M1277.8,893.8c-0.2,7.4-0.7,15-1.4,22.5
			c-4.6,48.3-21.7,97.8-48.1,139.5c-31.3,49.4-73.5,84.4-122.2,101.1c-2.5,0.9-5.4,2.2-9.2,4.1c-12.7,6.5-26.9,9.8-42.2,9.8
			c-8.8,0-17.3-1.1-25.4-2.6c-1.6,1.4-3.3,2.8-5,4.1c-2.6,5.3-5.8,10.2-9.5,14.6c-1.8,2.2-6.8,9.2-10.8,14.9l-0.1,0.2
			c-5.3,7.6-11.6,16.4-18.7,25.8c-14.7,19.6-33,41.9-54.5,61.6c-40.6,37.1-83.3,55.9-126.9,55.9c-33.3,0-64.8-10.8-93.7-32
			c-22.9-16.8-44.3-40.4-63.8-70.4c-2.7,0.2-5.3,0.3-7.9,0.3c-12.6,0-24.6-2.3-35.9-6.9c-21.7-8.8-41.1-24.7-54.7-44.9
			c-12.8-19-20-41-20.6-62.6c-1.9-1-5.1-2.4-10.2-3.9c-24.2-6.9-43.9-22.8-56-43.3c-6.1-10.4-10.3-21.9-12.2-34
			c-11.2,0-22.7,0.1-34.8,0.2l-0.5,0l-0.5,0c-12.7,0.1-25.8,0.2-38.5,0.2c-43.2,0-70.8-1.1-92.1-3.8c-0.6-0.1-1.3-0.1-1.9-0.2l0,0
			l0,0c-0.3,0-0.7-0.1-1-0.1c-9.4-1.3-17.5-2.8-24.9-4.8c-95.1-23.5-168.9-100.8-192.7-201.8c-15-63.4-9.2-131.7,16.7-197.6
			c23.5-59.8,62.6-116.1,116.3-167.5c-19.1-46-38.1-80.4-54.4-97.9c-18-19.4-44.7-56.4-60.4-96.8c-8.9-22.7-13.3-44-13.2-63.2
			c0.2-25.3,8-46.8,23.3-63.8c16.8-18.8,40.7-29.1,67.3-29.1h0h0c18,0,37,4.7,57.9,14.4c18.8,8.7,39.9,21.8,64.4,40.1
			c57.7,42.8,114.4,99.4,168.8,168.3c49.1-9.9,101.5-15.1,152.4-15.1c39,0,77.8,2.9,116,8.8c-0.9-1.3-1.7-2.5-2.6-3.8
			c-7.6-10.9-13.6-22.1-18-33.4c-5.9-15.2-8.8-30.6-8.6-45.6c0.5-28.8,12.9-53.7,34.8-70.2c15-11.3,33.2-17.2,52.6-17.2
			c23,0,46.7,8.4,70.6,25.1c21.5,15,43.3,36.6,66.9,66.1c38.4,48,71.1,103.5,96.4,152.2c10.5,20.2,19.7,39.2,27.4,56.1
			c1,2.1,1.9,4.4,2.7,6.7c50.6,39.4,96.2,86.8,135.5,140.9C1242.7,693.1,1280.3,794.7,1277.8,893.8z"/>
		<path d="M1013.8,490.7c-0.7-3.9-1.8-7.8-3.5-11.5c-12.8-27.7-29.5-61.5-49.4-96.5c-20.4-35.8-44.2-72.8-70.7-106
			c-43.3-54.1-80.9-80.4-115-80.4c-13.1,0-25.4,4-35.3,11.5c-27.5,20.6-30.8,59.4-9.5,97.5c2.3,4.1,4.8,8.1,7.6,12.1
			c13.7,19.5,24.8,39.7,33,60c-65.2-15.5-124.4-19.8-169.9-19.8c-55.4,0-111.8,6.3-164,18.3c-44.2-57.7-103.8-124.8-174.3-177.1
			c-45.4-33.8-77.9-48.8-105.1-48.8c-18.4,0-34.7,6.9-45.9,19.5c-44.8,50.1,15.5,148.1,50,185.1c25.2,27.1,49.3,78.6,67.4,125.1
			c-58.1,52-99.6,109.3-123.6,170.3C81.6,710.6,76.3,773,89.9,830.7c21.4,90.7,87.3,159.8,172,180.6c6.2,1.7,13.3,3.1,21.7,4.2
			c0.3,0,0.6,0.1,0.9,0.1c0.5,0.1,0.9,0.1,1.4,0.2c20.1,2.5,46.8,3.6,88.8,3.6c12.8,0,25.9-0.1,38.8-0.2c12.5-0.1,24.8-0.2,36.6-0.2
			c10.8,0,19.9,0.1,27.7,0.2c-0.3,2.9-0.6,5.9-0.9,9.2c-2.6,31.2,17.7,60.2,48.2,69c15.6,4.5,23.4,10.1,27.2,15.2
			c3.9,5.2,3.8,9.8,3.8,12c-0.7,35.6,23.4,71.4,57.3,85.1c7.8,3.2,16.3,4.8,25.1,4.8c8.1,0,15.6-1.4,22.3-3.1
			c40.7,69.8,88.8,105.1,143.2,105.1c59.3,0,106.9-42.8,141.1-84.1c14.1-17,26-33.8,35.5-47.2c5-7.1,9.7-13.8,12.3-16.8
			c3.7-4.5,6.4-9.6,8.3-14.9c3.7-2.5,7.3-5.2,10.6-8.2c3.1-2.7,5.9-5.7,8.4-8.8c11.5,2.9,23.1,5.4,34.6,5.4c10.7,0,20.5-2.2,29-6.6
			c5-2.6,9.1-4.4,13-5.7c92.6-31.7,143.2-134.3,151-216.1c0.7-6.8,1.1-13.8,1.3-20.5c2.4-92.5-32.9-187.3-97-260.4
			C1109.4,573.9,1062.4,527.4,1013.8,490.7z M767.2,248.6c0.3-0.5,0.7-1,1.1-1.4c0,0,0,0,0.1-0.1c0.2-0.2,0.4-0.4,0.6-0.5
			c0.2-0.1,0.3-0.2,0.5-0.4c0.1,0,0.1-0.1,0.2-0.1c0.1-0.1,0.3-0.2,0.4-0.2c0.1,0,0.1-0.1,0.2-0.1c0.2-0.1,0.4-0.2,0.6-0.3
			c0,0,0,0,0.1,0c0.2-0.1,0.4-0.1,0.6-0.2c0.1,0,0.1,0,0.2-0.1c0.2,0,0.3-0.1,0.5-0.1c0.1,0,0.1,0,0.2,0c0.2,0,0.5-0.1,0.8-0.1
			c0,0,0.1,0,0.1,0c0.2,0,0.5-0.1,0.7-0.1c0.1,0,0.2,0,0.3,0c0.2,0,0.4,0,0.6,0c0.1,0,0.1,0,0.2,0c0.4,0,0.7,0,1.1,0
			c0.1,0,0.2,0,0.2,0c0.4,0,0.8,0.1,1.2,0.1c0,0,0.1,0,0.1,0c0.4,0.1,0.8,0.1,1.2,0.2c0.1,0,0.1,0,0.2,0c0.4,0.1,0.9,0.2,1.3,0.3
			c0.1,0,0.2,0,0.3,0.1c0.5,0.1,0.9,0.2,1.4,0.4c0,0,0.1,0,0.1,0c0.5,0.1,0.9,0.3,1.4,0.5c0.1,0,0.2,0.1,0.3,0.1
			c0.5,0.2,1,0.4,1.5,0.6c0.1,0,0.2,0.1,0.3,0.1c0.5,0.2,1.1,0.4,1.6,0.7c0,0,0.1,0,0.1,0c0.5,0.2,1.1,0.5,1.6,0.8
			c0.1,0,0.2,0.1,0.3,0.1c0.6,0.3,1.1,0.6,1.7,0.9c0.1,0.1,0.2,0.1,0.3,0.2c0.6,0.3,1.2,0.6,1.8,1c0,0,0.1,0,0.1,0
			c0.6,0.3,1.2,0.7,1.8,1.1c0.1,0.1,0.2,0.1,0.3,0.2c0.6,0.4,1.3,0.8,1.9,1.2c0.1,0.1,0.2,0.2,0.4,0.2c0.2,0.1,0.4,0.3,0.6,0.4
			c0.5,0.3,0.9,0.6,1.4,0.9c0,0,0,0,0.1,0.1c0.7,0.5,1.4,0.9,2,1.4c0.1,0.1,0.2,0.2,0.4,0.3c0.1,0.1,0.2,0.1,0.3,0.2
			c0.6,0.4,1.2,0.9,1.8,1.3c0.1,0.1,0.3,0.2,0.4,0.3c0.2,0.2,0.5,0.3,0.7,0.5c0.5,0.4,1,0.8,1.5,1.2c0,0,0,0,0.1,0.1
			c0.7,0.6,1.5,1.2,2.2,1.8c0.1,0.1,0.3,0.2,0.4,0.3c0.8,0.6,1.5,1.2,2.3,1.9c0.1,0.1,0.3,0.2,0.4,0.4c0.8,0.7,1.6,1.4,2.4,2.1
			c0,0,0,0,0.1,0c0.8,0.7,1.6,1.4,2.4,2.2c0.1,0.1,0.3,0.3,0.4,0.4c0.8,0.7,1.6,1.5,2.5,2.3c0.2,0.1,0.3,0.3,0.5,0.4
			c0.3,0.3,0.6,0.6,0.9,0.9c0.6,0.5,1.1,1.1,1.7,1.7c0,0,0,0,0,0c0.6,0.5,1.1,1.1,1.7,1.6c0,0,0,0,0,0c0.3,0.3,0.6,0.6,0.9,0.9
			c0.2,0.2,0.3,0.3,0.5,0.5c0.9,0.9,1.8,1.8,2.6,2.7c0.2,0.2,0.3,0.3,0.5,0.5c0.9,1,1.9,1.9,2.8,2.9c0,0,0,0,0,0
			c0.9,1,1.9,2,2.8,3.1c0.2,0.2,0.3,0.4,0.5,0.6c0.9,1,1.9,2.1,2.8,3.1c0.2,0.2,0.4,0.4,0.5,0.6c0.8,0.9,1.5,1.7,2.3,2.6
			c0.2,0.3,0.4,0.5,0.7,0.8c0,0,0,0,0,0c0.4,0.4,0.7,0.9,1.1,1.3c0.6,0.7,1.2,1.4,1.8,2.2c0,0,0,0,0.1,0.1c0.2,0.2,0.4,0.4,0.6,0.7
			c0.5,0.7,1.1,1.3,1.7,2c0.4,0.5,0.9,1.1,1.3,1.6c0.2,0.2,0.4,0.5,0.6,0.7c1,1.3,2.1,2.6,3.1,3.9c0,0,0,0,0,0c0,0,0,0,0,0
			c0.9,1.1,1.8,2.2,2.6,3.4c0.7,0.9,1.5,1.8,2.2,2.8c0.5,0.6,1,1.3,1.4,1.9c0,0,0,0,0,0c0.3,0.4,0.6,0.8,0.9,1.2
			c0.8,1.1,1.7,2.2,2.5,3.3c0.5,0.7,1.1,1.4,1.6,2.1c0.4,0.6,0.9,1.1,1.3,1.7c0.6,0.9,1.3,1.7,1.9,2.6c0.5,0.7,1,1.4,1.5,2.1
			c0.4,0.5,0.8,1.1,1.2,1.6c0.7,1,1.4,1.9,2.1,2.9c0,0,0,0,0,0c0.5,0.6,0.9,1.3,1.3,1.9c1.1,1.6,2.3,3.2,3.4,4.8
			c0.4,0.5,0.8,1.1,1.1,1.6c0,0,0,0,0,0c0.6,0.8,1.1,1.6,1.7,2.4c0.6,0.9,1.2,1.8,1.9,2.7c0,0,0,0.1,0.1,0.1
			c0.3,0.4,0.6,0.8,0.9,1.3c1.3,1.9,2.6,3.9,3.9,5.8c0.2,0.3,0.3,0.5,0.5,0.8c0.4,0.6,0.8,1.2,1.2,1.8c1,1.6,2.1,3.2,3.1,4.7
			c0,0,0,0,0,0c0,0,0,0,0,0c7.2,11,14.1,22.2,20.6,33.3c1.3,2.1,2.5,4.2,3.7,6.3c9.5,16.4,18.3,32.6,26.3,48.1
			c-41.4-28-90.6-43.7-112.5-49.7c-0.7-2.8-1.4-5.5-2.2-8.3c0,0,0,0,0,0c-6-21.3-14.8-42.7-26-63.6c0,0,0,0,0,0
			c-1.4-2.5-2.8-5.1-4.2-7.6c-0.9-1.5-1.7-3.1-2.6-4.6c-0.1-0.3-0.3-0.5-0.4-0.8c-1-1.7-2.1-3.5-3.1-5.2c-0.1-0.1-0.1-0.2-0.2-0.3
			c-0.1-0.2-0.2-0.3-0.3-0.5c0,0,0,0,0,0c-1.2-1.9-2.4-3.8-3.6-5.7c-0.2-0.3-0.4-0.6-0.6-0.9c-1-1.5-2-3.1-3-4.6
			c-0.3-0.5-0.6-1-1-1.4c-1.2-1.8-2.5-3.6-3.7-5.4C765.4,272.2,762.7,255.5,767.2,248.6z M931.8,1160.7
			c-26.2,37.1-75.1,106-127.9,106c-35.9,0-70.5-32.4-102.8-96.2c-4.8-9.5-13-14.5-23.8-14.5c-7.5,0-15.1,2.4-22.5,4.8
			c-5.9,1.9-12,3.9-16.4,3.9c-1.1,0-2.1-0.1-2.8-0.4c-10.7-4.3-20.3-18-20-28.6c0.8-40.7-26.2-72-74.2-85.8
			c-3.2-0.9-5.4-3.7-5.1-6.7c0.7-7.9,1.5-14.9,2.3-20.7c3.9,2.5,7.8,4.8,11.8,7.1c18.4,10.5,37.5,17.4,55.9,24c2.7,1,5.5,2,8.2,3
			c7.4,2.7,15.1,5.8,20.6,9.9c0.9,0.7,4.2,3.8,7,6.6c15.5,14.9,47.8,46,77.9,55c1.9,0.6,3.8,1,5.6,1.4c3.2,0.6,6.5,0.9,9.9,0.9
			c5.9,0,11.7-1,17.2-2.8c7.5,7.9,18,13.5,30.1,16c2.1,0.4,4.2,0.8,6.1,1.2l1.4,0.3l1.3,0.2c2.2,0.4,4.6,0.9,6.8,1.4
			c0.9,0.2,1.9,0.4,2.9,0.6c4.1,0.8,8.2,1.2,12.2,1.2c7.5,0,14.8-1.4,21.5-4.1c6.3,5.6,14.5,9.5,23.8,11.2c2.1,0.4,4.3,0.7,6.4,0.8
			c2.2,0.2,4.4,0.4,6.8,0.6c2.4,0.2,5.1,0.4,7.8,0.6c1.8,0.1,3.7,0.2,5.5,0.2c10.8,0,20.8-2.6,29.4-7.5c5.4,3.7,11.8,6.3,18.7,7.6
			c0.1,0,0.1,0,0.2,0C933,1158.9,932.4,1159.8,931.8,1160.7z M1200.5,876.7c0.1,2.5,0.1,5.1,0.1,7.6c0,2.5,0,5-0.1,7.6
			c0,0,0,0.1,0,0.2c-0.1,4.9-0.4,9.9-0.9,14.9c-0.1,0.7-0.1,1.4-0.2,2.1c-0.2,2-0.4,4.1-0.7,6.1c-0.3,2-0.6,4.1-0.9,6.2
			c-0.1,0.3-0.1,0.7-0.2,1c-0.3,1.8-0.6,3.6-0.9,5.4c-0.4,2.4-0.9,4.7-1.4,7.1c-0.7,3.3-1.5,6.6-2.4,9.9c-0.6,2.2-1.2,4.4-1.8,6.6
			s-1.3,4.4-2,6.6c-1.4,4.4-3,8.8-4.7,13.2c-0.4,1.1-0.9,2.2-1.3,3.3c-0.9,2.2-1.8,4.4-2.7,6.5c-0.5,1.1-0.9,2.2-1.4,3.3
			c-1.2,2.7-2.5,5.4-3.8,8.1c-2.4,4.8-4.9,9.5-7.6,14.1c-1.8,3.1-3.7,6.1-5.6,9.1c-2.4,3.7-4.9,7.4-7.5,10.9c-0.4,0.5-0.7,1-1.1,1.5
			c-1.8,2.4-3.7,4.8-5.6,7.1c-0.3,0.3-0.5,0.6-0.8,0.9c-1.3,1.6-2.6,3.1-3.9,4.6c-0.9,1-1.8,2.1-2.8,3.1c-1.5,1.6-3.1,3.3-4.7,4.9
			c0,0,0,0,0,0c-2,2-4,3.9-6,5.7c-1.9,1.7-3.8,3.4-5.7,5c-2.6,2.1-5.2,4.2-7.9,6.1c-1.5,1.1-3.1,2.2-4.6,3.2
			c-9.4,6.3-19.5,11.4-30.3,15.1c-6.8,2.3-13.2,5.2-19.4,8.5c-0.2,0.1-0.4,0.2-0.7,0.3c-0.4,0.2-0.9,0.3-1.3,0.4
			c-1.4,0.4-3,0.5-4.8,0.5h0c-11.9,0-31.9-6.9-46.6-9.9c-0.6-0.1-1.2-0.2-1.7-0.3c-3.4-0.6-6.5-1-9-1h0h0c-1,0-2,0.1-2.8,0.2
			c-0.3,0-0.5,0.1-0.8,0.2c-2,0.5-3.3,1.5-3.7,3.1c-0.1,0.2-0.1,0.5-0.2,0.8c0,0.4-0.1,0.8-0.1,1.2c-0.8,6-2.4,11.6-5.9,16.5
			c-0.3,0.4-0.6,0.9-1,1.3c-1,1.3-2.2,2.5-3.5,3.7c-3.1,2.8-6.5,5-10.1,6.8c-0.1,0.1-0.2,0.1-0.4,0.2c-0.9,0.4-1.9,0.9-2.8,1.2
			c-5.8,2.3-12,3.5-18.7,3.8c-1,0-2,0.1-3.1,0.1c-0.2,0-0.4,0-0.6,0c-0.8,0-1.6,0-2.4,0c-0.6,0-1.1-0.1-1.7-0.1
			c-0.1,0-0.3,0-0.4-0.1c0,0,0,0-0.1,0c-0.4-0.1-0.7-0.1-1.1-0.2c-0.1,0-0.2-0.1-0.4-0.1c-0.1,0-0.2,0-0.3-0.1
			c-0.2,0-0.4-0.1-0.6-0.2c-0.1,0-0.2-0.1-0.4-0.1c-0.2-0.1-0.4-0.1-0.6-0.2c-0.2-0.1-0.4-0.2-0.6-0.3c-0.1,0-0.1-0.1-0.2-0.1
			c0,0-0.1,0-0.1-0.1c-0.2-0.1-0.3-0.1-0.4-0.2c-0.2-0.1-0.4-0.2-0.6-0.3c-0.1,0-0.1-0.1-0.2-0.1c-0.1-0.1-0.2-0.1-0.3-0.2
			c-0.1,0-0.1-0.1-0.2-0.1c-0.2-0.1-0.4-0.2-0.5-0.4c-0.1-0.1-0.2-0.1-0.3-0.2c-0.1,0-0.1-0.1-0.2-0.1c0,0-0.1-0.1-0.1-0.1
			c-0.4-0.3-0.7-0.6-1.1-0.9c0,0-0.1-0.1-0.1-0.1c0,0-0.1-0.1-0.1-0.1c-0.1-0.1-0.2-0.3-0.4-0.4c-0.1-0.1-0.3-0.3-0.4-0.4
			c-0.1-0.1-0.1-0.2-0.2-0.3c0,0-0.1-0.1-0.1-0.1c-0.1-0.1-0.1-0.1-0.1-0.2c-0.1-0.2-0.3-0.3-0.4-0.5c-0.1-0.1-0.1-0.2-0.2-0.3
			c0-0.1-0.1-0.1-0.1-0.2c-0.1-0.2-0.2-0.4-0.3-0.5c0-0.1-0.1-0.1-0.1-0.2c0-0.1-0.1-0.1-0.1-0.2c0-0.1-0.1-0.2-0.1-0.3
			c0-0.1-0.1-0.2-0.1-0.3c-0.1-0.1-0.1-0.3-0.2-0.4c-0.1-0.2-0.1-0.4-0.2-0.6c-0.1-0.3-0.1-0.5-0.2-0.8c0-0.1,0-0.2,0-0.2
			c0-0.1-0.1-0.2-0.1-0.3c0-0.2-0.1-0.5-0.1-0.7c0,0,0-0.1,0-0.1c0-0.2,0-0.4-0.1-0.6c0-0.1,0-0.2,0-0.3c0-0.2,0-0.4,0-0.6
			c0-0.1,0-0.2,0-0.4c0-0.1,0-0.1,0-0.2c0-0.3,0.1-0.7,0.1-1c0-0.1,0-0.2,0-0.4c0,0,0-0.1,0-0.1c0-0.1,0.1-0.2,0.1-0.3
			c0.1-0.4,0.2-0.8,0.3-1.2c1-3.3,1.7-6.7,2.3-10.1c0.2-0.9,0.3-1.9,0.5-2.9c0.4-2.6,0.7-5.2,0.8-7.9c0.1-1.4,0.2-2.9,0.2-4.3
			c0-0.9,0.1-1.7,0.1-2.6c0-3.1,0-6.2-0.2-9.4c0-0.1,0-0.2,0-0.2c0-0.1,0-0.3,0-0.4c0,0,0-0.1,0-0.1c0,0,0-0.1,0-0.1
			c0-0.1,0-0.3,0-0.4c0,0,0,0,0,0c0,0,0,0,0,0c0-0.1,0-0.1,0-0.2c0-0.1,0-0.3-0.1-0.4c0-0.1,0-0.2,0-0.2c0,0,0,0,0,0
			c0-0.1,0-0.2-0.1-0.4c0-0.1,0-0.2-0.1-0.3c0-0.1,0-0.1,0-0.2c0-0.1,0-0.1,0-0.2c0,0,0-0.1,0-0.1c0,0,0-0.1,0-0.1
			c0-0.1-0.1-0.2-0.1-0.2c0,0,0-0.1,0-0.1c0,0,0-0.1,0-0.1c0,0,0-0.1,0-0.1c0,0,0-0.1,0-0.1c0-0.1-0.1-0.1-0.1-0.2
			c0-0.1-0.1-0.1-0.1-0.2c0-0.1-0.1-0.2-0.2-0.3c0-0.1-0.1-0.1-0.1-0.2c-0.1-0.1-0.1-0.2-0.2-0.3c0-0.1-0.1-0.1-0.1-0.2
			c-0.1-0.1-0.1-0.2-0.2-0.2c0,0,0,0,0,0c-0.1-0.1-0.1-0.1-0.2-0.2c-0.1-0.1-0.2-0.2-0.3-0.2c0,0-0.1-0.1-0.1-0.1c0,0,0,0,0,0
			c-0.1-0.1-0.3-0.2-0.5-0.3c0,0,0,0-0.1,0c-0.2-0.1-0.4-0.2-0.6-0.3c-0.1,0-0.1,0-0.2-0.1c-0.1,0-0.1,0-0.2-0.1
			c-0.1,0-0.2-0.1-0.3-0.1c-0.1,0-0.2,0-0.3-0.1c0,0-0.1,0-0.1,0c-0.1,0-0.1,0-0.2-0.1c0,0-0.1,0-0.1,0c-0.3-0.1-0.6-0.1-0.9-0.1
			c-0.2,0-0.5,0-0.7,0h0c0,0-0.1,0-0.1,0c-3.4,0-4.8,2.3-5.3,5c0,0.2-0.1,0.5-0.1,0.8c0,0.1,0,0.1,0,0.2
			c-1.4,11.2-3.9,22.1-8.4,32.5c0,0.1-0.1,0.2-0.1,0.3c-0.3,0.8-0.7,1.6-1,2.4c-0.1,0.2-0.1,0.3-0.2,0.5c-0.2,0.4-0.4,0.9-0.6,1.3
			c0,0.1-0.1,0.2-0.1,0.3c-0.8,1.9-1.8,3.7-2.9,5.4c-0.4,0.6-0.8,1.2-1.2,1.7s-0.9,1.1-1.4,1.6c-0.3,0.3-0.5,0.5-0.8,0.8
			c-0.5,0.4-0.9,0.8-1.4,1.2c-3.4,2.7-7.3,4.4-11.6,5.1c-0.8,0.1-1.7,0.2-2.5,0.3c-0.9,0.1-1.7,0.1-2.6,0.1c0,0,0,0,0,0
			c-0.9,0-1.9,0-2.9-0.1c-4.8-0.4-9.7-0.8-14.5-1.2c-0.6,0-1.2-0.1-1.7-0.2c-0.2,0-0.3-0.1-0.5-0.1c-0.4-0.1-0.7-0.1-1.1-0.2
			c-0.2-0.1-0.5-0.1-0.7-0.2c-0.3-0.1-0.6-0.1-0.8-0.2c0,0-0.1,0-0.1,0c0,0,0,0-0.1,0c-0.2-0.1-0.4-0.1-0.6-0.2
			c-0.1,0-0.2-0.1-0.3-0.1c-0.2-0.1-0.4-0.1-0.6-0.2c-0.1,0-0.1-0.1-0.2-0.1c-0.1,0-0.3-0.1-0.4-0.2c-0.3-0.1-0.5-0.2-0.7-0.4
			c0,0-0.1,0-0.1-0.1c-0.2-0.1-0.3-0.2-0.5-0.2c-0.4-0.2-0.7-0.4-1-0.6c0,0-0.1,0-0.1-0.1c0,0-0.1,0-0.1-0.1
			c-0.1-0.1-0.2-0.2-0.4-0.3c-0.2-0.2-0.5-0.4-0.7-0.6c0,0-0.1-0.1-0.1-0.1c-0.1-0.1-0.1-0.1-0.2-0.2c-0.1-0.1-0.1-0.1-0.2-0.2
			c-0.2-0.2-0.3-0.3-0.5-0.5c-0.1-0.1-0.1-0.2-0.2-0.2c0-0.1-0.1-0.1-0.1-0.2c-0.1-0.1-0.2-0.2-0.2-0.3c-0.1-0.1-0.2-0.2-0.3-0.3
			c0-0.1-0.1-0.1-0.1-0.2c-0.1-0.1-0.1-0.2-0.2-0.3c-0.1-0.2-0.2-0.3-0.3-0.5c0-0.1-0.1-0.1-0.1-0.2c0,0,0,0,0-0.1
			c-0.1-0.1-0.1-0.3-0.2-0.4c-0.1-0.2-0.2-0.5-0.3-0.7c0-0.1-0.1-0.2-0.1-0.4c0-0.1,0-0.1-0.1-0.2c0,0,0,0,0,0
			c-0.1-0.2-0.1-0.5-0.2-0.7c0-0.1-0.1-0.3-0.1-0.4c0-0.1,0-0.1,0-0.2c0-0.3-0.1-0.5-0.1-0.8c0-0.2,0-0.4-0.1-0.6c0-0.3,0-0.6,0-0.9
			c0-0.1,0-0.3,0-0.4c0,0,0-0.1,0-0.1c0-0.2,0-0.4,0.1-0.6c0-0.1,0-0.3,0-0.4c0-0.1,0-0.1,0-0.2c0-0.1,0-0.2,0-0.3
			c0.1-0.5,0.2-1,0.3-1.6c1.3-4.9,2.4-9.8,3.3-14.8c1-5.8,1.6-11.6,1.6-17.5c0-1.6-0.1-3.1-0.2-4.7c-0.1-1.6-0.3-3.2-0.6-4.9
			c0-0.2,0-0.3-0.1-0.5c0-0.1,0-0.1,0-0.2c0-0.1,0-0.2-0.1-0.3c0-0.1,0-0.1,0-0.2c0-0.1,0-0.2-0.1-0.3c0,0,0-0.1,0-0.1
			c0,0,0-0.1,0-0.1c0-0.1,0-0.2-0.1-0.2c0,0,0,0,0,0c0-0.1,0-0.1,0-0.2c0,0,0,0,0,0c0-0.1,0-0.1-0.1-0.2c0-0.1,0-0.1-0.1-0.2
			c0-0.1-0.1-0.2-0.1-0.3c0-0.1,0-0.1-0.1-0.2c0-0.1,0-0.1-0.1-0.2c0,0,0-0.1,0-0.1c0-0.1-0.1-0.1-0.1-0.2c0-0.1-0.1-0.2-0.1-0.2
			c0-0.1-0.1-0.1-0.1-0.2c0,0,0,0,0-0.1c0-0.1-0.1-0.1-0.1-0.2c0,0-0.1-0.1-0.1-0.1c0,0,0,0,0,0c-0.1-0.1-0.1-0.1-0.2-0.2
			c0,0-0.1-0.1-0.1-0.1c-0.1-0.1-0.1-0.1-0.2-0.2c0,0-0.1-0.1-0.1-0.1c0,0,0,0,0,0c0,0,0,0-0.1,0c-0.1-0.1-0.2-0.1-0.2-0.1
			c0,0-0.1-0.1-0.1-0.1c-0.1-0.1-0.3-0.1-0.4-0.2c0,0,0,0-0.1,0c0,0,0,0-0.1,0c0,0,0,0,0,0c-0.1-0.1-0.3-0.1-0.5-0.2
			c-0.1,0-0.1,0-0.2-0.1c-0.1,0-0.2-0.1-0.4-0.1c0,0,0,0,0,0c0,0,0,0,0,0c-0.2,0-0.4-0.1-0.6-0.1c-0.1,0-0.1,0-0.2,0
			c-0.3,0-0.6,0-0.9,0h0c0,0,0,0,0,0c-3.5,0-4.9,2-5.5,4.8c-0.8,4.1-1.4,8.2-2.3,12.3c-0.3,1.4-0.6,2.7-0.9,4c0,0.2-0.1,0.3-0.1,0.5
			c-1.1,4.2-2.1,8.5-3.6,12.5c-0.5,1.3-1,2.5-1.5,3.8c-0.3,0.6-0.6,1.2-0.9,1.8c-1.6,3-3.5,5.9-6.1,8.5c-0.4,0.4-0.8,0.8-1.2,1.2
			c0,0-0.1,0.1-0.1,0.1c-0.1,0.1-0.2,0.2-0.3,0.3c-0.3,0.2-0.6,0.5-0.8,0.7c-0.2,0.1-0.3,0.3-0.5,0.4c-0.3,0.2-0.5,0.4-0.8,0.6
			c-0.2,0.1-0.4,0.2-0.6,0.4c-0.2,0.1-0.3,0.2-0.5,0.3c-0.1,0.1-0.2,0.1-0.3,0.2c-0.2,0.1-0.4,0.2-0.6,0.3c0,0,0,0,0,0c0,0,0,0,0,0
			c-0.3,0.1-0.5,0.3-0.8,0.4c-0.2,0.1-0.4,0.2-0.5,0.3c0,0-0.1,0-0.1,0.1c-0.1,0.1-0.3,0.1-0.4,0.2c-0.1,0.1-0.3,0.1-0.4,0.2
			c-0.1,0.1-0.3,0.1-0.4,0.2c-0.1,0-0.1,0.1-0.2,0.1c-0.1,0-0.1,0-0.2,0.1c-0.2,0.1-0.4,0.2-0.6,0.2c-0.1,0-0.1,0-0.2,0.1
			c-0.2,0.1-0.3,0.1-0.5,0.2c-0.2,0.1-0.4,0.1-0.5,0.2c-0.1,0-0.2,0.1-0.3,0.1c-0.2,0.1-0.5,0.1-0.7,0.2c-0.1,0-0.3,0.1-0.4,0.1
			c-0.1,0-0.3,0.1-0.4,0.1c-0.2,0.1-0.5,0.1-0.7,0.1c-0.3,0.1-0.6,0.1-0.9,0.1c-0.1,0-0.2,0-0.3,0c-0.1,0-0.3,0-0.4,0.1
			c-0.1,0-0.2,0-0.3,0c-0.2,0-0.4,0-0.6,0.1c-0.2,0-0.3,0-0.5,0c-0.1,0-0.2,0-0.3,0c-0.3,0-0.6,0-0.9,0c-0.1,0-0.1,0-0.2,0
			c-0.1,0-0.2,0-0.4,0c-0.1,0-0.1,0-0.2,0c-0.2,0-0.3,0-0.5,0c-0.2,0-0.3,0-0.5,0c-0.1,0-0.2,0-0.3,0c-0.2,0-0.4,0-0.5,0
			c-0.3,0-0.7-0.1-1-0.1c-0.1,0-0.1,0-0.2,0c-0.2,0-0.4,0-0.6-0.1c-0.3,0-0.7-0.1-1-0.1c0,0,0,0,0,0c0,0,0,0,0,0
			c-0.3,0-0.5-0.1-0.8-0.1c-0.6-0.1-1.1-0.2-1.7-0.3c-2.7-0.6-5.4-1.1-8.1-1.6c0,0-0.1,0-0.1,0c-0.4-0.1-0.7-0.1-1.1-0.2
			c-0.6-0.1-1.2-0.2-1.8-0.3c-1.4-0.3-2.8-0.5-4.2-0.8c-0.3-0.1-0.6-0.1-1-0.2c-2.1-0.4-4-1-5.7-1.8c-9-3.7-13.2-11.2-11.2-20.3
			c0.7-3.4,1.3-6.9,1.7-10.4c0.1-1.2,0.2-2.3,0.3-3.5c0-0.1,0-0.2,0-0.3c0.1-1,0.1-2.1,0.2-3.1c0.1-2.1,0-4.2-0.1-6.3
			c-0.1-1.1-0.1-2.1-0.2-3.2c-0.2-1.8-0.4-3.7-0.7-5.5c-0.4-2.2-1-4.4-1.9-6.5c-0.1-0.2-0.2-0.5-0.3-0.7c0,0,0,0,0,0
			c0-0.1-0.1-0.1-0.1-0.2c-0.1-0.1-0.1-0.2-0.2-0.3c0,0-0.1-0.1-0.1-0.1c0,0,0,0-0.1-0.1c0,0,0-0.1-0.1-0.1
			c-0.1-0.1-0.3-0.3-0.4-0.4c0,0,0,0-0.1,0c0,0-0.1,0-0.1-0.1c-0.2-0.1-0.3-0.2-0.5-0.3c-0.1,0-0.1-0.1-0.2-0.1
			c-0.2-0.1-0.3-0.1-0.5-0.2c-0.1,0-0.1,0-0.2-0.1c-0.2-0.1-0.3-0.1-0.5-0.1c-0.1,0-0.1,0-0.2,0c0,0,0,0,0,0c0,0,0,0,0,0
			c-0.2,0-0.4-0.1-0.6-0.1c-0.1,0-0.2,0-0.2,0c0,0,0,0,0,0c-0.3,0-0.5,0-0.8,0c0,0-0.1,0-0.1,0c-1.7,0-2.9,0.5-3.7,1.4
			c-0.4,0.5-0.7,1.2-0.8,2c-0.3,2.4-0.7,4.7-1,7.1c-0.1,1.1-0.3,2.1-0.3,3.2c-0.2,2.9-0.7,5.7-1.4,8.5c-1.4,5.7-3.6,11.1-6,16.5
			c-0.2,0.4-0.3,0.8-0.5,1.2c0,0.1-0.1,0.2-0.2,0.3c-0.1,0.3-0.3,0.5-0.4,0.8c0,0,0,0.1-0.1,0.1c-0.1,0.1-0.1,0.2-0.2,0.3
			c-0.2,0.3-0.3,0.5-0.5,0.8c0,0-0.1,0.1-0.1,0.1c-0.2,0.3-0.5,0.6-0.8,1c0,0.1-0.1,0.1-0.1,0.2c-0.3,0.3-0.6,0.6-0.9,0.9
			c-0.1,0.1-0.1,0.1-0.2,0.1c-0.3,0.3-0.6,0.6-1,0.8c-0.1,0-0.1,0.1-0.2,0.1c-0.3,0.3-0.7,0.5-1.1,0.8c0,0-0.1,0-0.1,0.1
			c0,0,0,0,0,0c-0.4,0.3-0.8,0.5-1.2,0.8c-0.5,0.3-0.9,0.5-1.3,0.7c0,0-0.1,0-0.1,0.1c-0.4,0.2-0.9,0.4-1.3,0.6c0,0-0.1,0-0.1,0.1
			c0,0,0,0-0.1,0c-0.4,0.2-0.9,0.3-1.3,0.5c-0.1,0-0.2,0-0.2,0.1c-0.4,0.1-0.9,0.3-1.4,0.4c-0.1,0-0.2,0-0.2,0.1
			c-0.3,0.1-0.6,0.1-0.9,0.2c-0.2,0-0.3,0.1-0.5,0.1c0,0-0.1,0-0.1,0c0,0,0,0-0.1,0c-0.1,0-0.2,0-0.3,0c-0.4,0-0.8,0.1-1.1,0.1
			c-0.1,0-0.1,0-0.2,0c-0.2,0-0.5,0-0.7,0c-0.2,0-0.4,0-0.6,0c-0.1,0-0.1,0-0.2,0c0,0,0,0-0.1,0c-0.2,0-0.4,0-0.6,0
			c-0.3,0-0.6,0-1-0.1c0,0,0,0,0,0c0,0,0,0-0.1,0c-0.5-0.1-1-0.1-1.6-0.2c0,0-0.1,0-0.1,0c0,0-0.1,0-0.1,0c-0.2,0-0.4-0.1-0.7-0.1
			c-0.1,0-0.2,0-0.3-0.1c-0.3-0.1-0.7-0.2-1-0.3c-13.7-4.1-25.5-9.9-35.1-17.7c-0.7-0.6-1.5-1.2-2.2-1.8c-1.4-1.2-2.8-2.5-4.1-3.9
			c0,0-0.1-0.1-0.1-0.1c-1.4-1.5-2.8-3-4.1-4.6c-0.2-0.2-0.4-0.5-0.6-0.7c-2.6-3.2-4.9-6.7-6.9-10.4c-0.3-0.5-0.6-1.1-0.8-1.6
			c-0.9-1.7-1.7-3.5-2.5-5.4c-3-7.1-5.4-5.9-9.6-6.4c-2.2-0.3-4.9-1.1-8.4-3.7c-0.6-0.5-1.3-0.9-1.9-1.4c-2.1-1.4-4.2-2.8-6.4-4
			c-2.2-1.2-4.4-2.4-6.7-3.5c-1.7-0.8-3.4-1.6-5.2-2.3c-0.6-0.3-1.2-0.5-1.9-0.8c-2.3-0.9-4.6-1.8-6.9-2.7
			c-7.6-2.8-15.1-5.4-22.7-8.3c-1.3-0.5-2.5-0.9-3.8-1.4c-4.5-1.7-8.9-3.5-13.2-5.4c-1.5-0.7-3.1-1.3-4.6-2c-1.4-0.7-2.9-1.3-4.3-2
			c-3.6-1.7-7.1-3.6-10.6-5.6c-2.5-1.4-4.9-2.8-7.2-4.3c-5.9-3.6-11.6-7.5-17.1-11.5c-1.1-0.8-2.2-1.6-3.2-2.4
			c-8.6-6.6-44.9-7.7-88.5-7.7c-24.1,0-50.3,0.4-75.4,0.4c-6,0-12,0-17.9-0.1c0,0-0.1,0-0.1,0c-3.9,0-7.7-0.1-11.4-0.1
			c-7.8-0.1-15.4-0.3-22.5-0.6c-11.9-0.5-22.7-1.3-31.7-2.4l0,0l0,0c-0.1,0-0.2,0-0.4-0.1c-1.6-0.2-3.2-0.4-4.7-0.7
			c-4.5-0.7-8.5-1.5-11.8-2.5c-12.8-3.1-25.2-7.6-36.8-13.5c-1.4-0.7-2.7-1.4-4.1-2.1c-0.9-0.5-1.9-1-2.8-1.5c-1.7-1-3.4-1.9-5.1-3
			c-2.2-1.3-4.3-2.7-6.4-4.1c-7.7-5.1-15-10.8-21.9-17c-0.3-0.3-0.7-0.6-1-0.9c-2-1.9-4-3.8-6-5.8c-1.3-1.3-2.6-2.7-3.9-4
			c-1.3-1.4-2.5-2.7-3.8-4.1c-2.5-2.8-4.9-5.7-7.2-8.7c-0.6-0.7-1.2-1.5-1.7-2.2c-1.1-1.5-2.3-3-3.4-4.6c-0.6-0.8-1.1-1.5-1.6-2.3
			c-6.5-9.4-12.2-19.4-17.2-30c-0.4-0.9-0.8-1.8-1.2-2.7c-3.5-7.8-6.6-16-9.1-24.4c-0.1-0.4-0.3-0.9-0.4-1.3
			c-26.2-87.4-1-203.9,115.2-311l10.8,34c0,0-32.1,57.4-1.1,112.3c22.5,39.9,72,48.3,85.2,36s6.3-22.5-9.2-24.8
			c-0.1,0-6.5-1.3-14.7-5.5c0,0,0,0-0.1,0c-0.9-0.5-1.9-1-2.9-1.6c-0.1,0-0.1-0.1-0.2-0.1c-0.2-0.1-0.4-0.2-0.6-0.4
			c-0.1-0.1-0.3-0.2-0.4-0.2c-0.3-0.2-0.6-0.3-0.8-0.5c-0.1,0-0.1-0.1-0.2-0.1c-0.2-0.1-0.4-0.2-0.6-0.4c-0.5-0.3-1-0.7-1.5-1
			c-1.3-0.9-2.6-1.8-3.8-2.8c-5.6-4.4-11.1-10.3-15.5-18c-4.5-8-7.3-17-8.5-27.1c-0.5-4.6-0.7-9.4-0.6-14.4c0.1-1.9,0.2-3.9,0.3-5.9
			c0.2-2.1,0.4-4.3,0.7-6.5c0.3-2.1,0.6-4.3,1-6.5c0.2-1.3,0.5-2.6,0.8-3.9c0.4-2.1,0.9-4.1,1.4-6.2c0.6-2.3,1.2-4.7,1.8-7
			c0.8-3,1.8-6,2.8-9c1-3.1,2.1-6.2,3.3-9.4c0.4-1,0.5-2.1,0.4-3.1c0-0.4-0.1-0.8-0.2-1.2c-0.3-1.2-2.2-7.7-5.4-17.8
			c-1.1-3.4-2.3-7.1-3.6-11.2c-0.7-2.1-1.4-4.2-2.1-6.4c-1.2-3.7-2.6-7.7-4-11.8c-1.4-4.1-2.9-8.3-4.5-12.7c-0.8-2.3-1.7-4.6-2.5-7
			c-10-27.4-23.1-59.7-38.4-89.6c-0.8-1.6-1.7-3.2-2.5-4.8c-0.1-0.1-0.1-0.3-0.2-0.4c-0.8-1.5-1.5-2.9-2.3-4.4
			c-0.1-0.2-0.2-0.4-0.3-0.6c-0.7-1.4-1.5-2.8-2.3-4.1c-0.1-0.2-0.3-0.5-0.4-0.7c-0.8-1.4-1.5-2.7-2.3-4.1c-0.1-0.2-0.2-0.4-0.4-0.7
			c-0.8-1.4-1.6-2.8-2.4-4.2c-0.1-0.1-0.2-0.3-0.2-0.4c-2.7-4.6-5.5-9.1-8.3-13.5c-0.1-0.2-0.3-0.4-0.4-0.6
			c-0.8-1.2-1.6-2.4-2.4-3.6c-0.3-0.4-0.5-0.8-0.8-1.2c-0.7-1-1.3-1.9-2-2.9c-0.3-0.5-0.6-0.9-1-1.4c-0.6-0.9-1.2-1.7-1.8-2.6
			c0,0,0,0,0,0c-0.1-0.2-0.3-0.4-0.4-0.5c-0.2-0.3-0.5-0.6-0.7-0.9c-0.6-0.8-1.2-1.6-1.8-2.4c0,0,0,0,0,0c-0.4-0.5-0.7-1-1.1-1.5h0
			c-0.6-0.8-1.2-1.5-1.8-2.3c-0.3-0.4-0.7-0.8-1-1.3c0-0.1-0.1-0.1-0.1-0.2c-0.6-0.8-1.2-1.5-1.8-2.2c0,0,0,0,0,0
			c-0.3-0.4-0.6-0.7-0.9-1.1c-0.1-0.1-0.2-0.2-0.2-0.3c-0.7-0.8-1.3-1.5-2-2.3c0,0,0,0,0,0c-0.3-0.4-0.6-0.7-1-1.1c0,0,0,0,0,0
			c-1-1.1-1.9-2.2-2.9-3.2c0,0,0,0,0,0c0,0,0,0,0,0c0,0,0,0,0,0c-0.9-0.9-1.7-1.9-2.6-2.8c-9.6-10.8-18.5-23.3-26-36
			c-0.4-0.6-0.7-1.2-1.1-1.9c-2.4-4.2-4.7-8.4-6.8-12.5c-2-4-3.9-7.9-5.5-11.8c-0.4-0.9-0.8-1.9-1.2-2.8c-0.6-1.4-1.2-2.8-1.7-4.2
			c-1-2.4-1.8-4.9-2.6-7.2c-0.3-0.9-0.6-1.7-0.8-2.5c-0.1-0.2-0.2-0.5-0.2-0.7c-0.2-0.6-0.4-1.2-0.5-1.8c-0.1-0.3-0.2-0.5-0.2-0.8
			c-0.2-0.6-0.3-1.2-0.5-1.7c-0.1-0.2-0.1-0.5-0.2-0.7c-0.2-0.6-0.3-1.3-0.5-1.9c0-0.2-0.1-0.3-0.1-0.5c-0.6-2.4-1.1-4.7-1.5-6.9
			c-0.1-0.8-0.3-1.6-0.4-2.4c-0.1-0.4-0.1-0.8-0.1-1.2c-0.1-0.8-0.2-1.6-0.2-2.4c-0.6-7.5,0.5-13.4,3.6-16.8
			c0.1-0.1,0.1-0.2,0.2-0.2c0,0,0,0,0.1-0.1c0.1-0.1,0.1-0.1,0.2-0.2c0,0,0,0,0.1-0.1c0.1-0.1,0.2-0.2,0.3-0.2c0,0,0,0,0.1,0
			c0.1-0.1,0.2-0.1,0.3-0.2c0,0,0.1-0.1,0.1-0.1c0.1-0.1,0.2-0.1,0.3-0.2c0,0,0.1,0,0.1-0.1c0.1-0.1,0.3-0.2,0.4-0.2
			c0,0,0.1,0,0.1-0.1c0.1-0.1,0.2-0.1,0.3-0.2c0.1,0,0.1-0.1,0.2-0.1c0.1,0,0.2-0.1,0.3-0.1c0.1,0,0.1,0,0.2-0.1c0,0,0,0,0.1,0
			c0.1,0,0.2-0.1,0.3-0.1c0.1,0,0.2-0.1,0.3-0.1c0.1,0,0.1,0,0.2-0.1c0.1,0,0.2-0.1,0.3-0.1c0,0,0.1,0,0.1,0c0.1,0,0.1,0,0.2-0.1
			c0.2-0.1,0.4-0.1,0.6-0.2c0,0,0.1,0,0.1,0c0.1,0,0.3-0.1,0.4-0.1c0.1,0,0.1,0,0.2,0c0.1,0,0.2,0,0.2,0c0.2,0,0.4-0.1,0.6-0.1
			c0.1,0,0.1,0,0.2,0c0,0,0,0,0.1,0c0.2,0,0.5-0.1,0.7-0.1c0.1,0,0.1,0,0.2,0c0.2,0,0.4,0,0.7,0c0.1,0,0.2,0,0.3,0
			c0.1,0,0.1,0,0.2,0c0.2,0,0.4,0,0.7,0c0,0,0.1,0,0.1,0c0,0,0,0,0,0c0.3,0,0.6,0,0.8,0c0,0,0.1,0,0.1,0c0.1,0,0.2,0,0.3,0
			c0.3,0,0.5,0,0.8,0c0.1,0,0.2,0,0.3,0c0.1,0,0.1,0,0.2,0c0.1,0,0.1,0,0.2,0c0.2,0,0.4,0,0.6,0.1c0.1,0,0.1,0,0.2,0
			c0.4,0,0.8,0.1,1.2,0.2c0.1,0,0.2,0,0.3,0c0.1,0,0.2,0,0.3,0.1c0.2,0,0.4,0.1,0.6,0.1c0.1,0,0.2,0,0.3,0.1
			c0.3,0.1,0.7,0.1,1.1,0.2c0.1,0,0.2,0,0.2,0c0.4,0.1,0.9,0.2,1.4,0.3c0.1,0,0.1,0,0.2,0.1c0.4,0.1,0.8,0.2,1.2,0.3
			c0.1,0,0.3,0.1,0.4,0.1c0.4,0.1,0.8,0.2,1.2,0.4c0.1,0,0.2,0.1,0.3,0.1c0.5,0.2,1.1,0.3,1.6,0.5c0,0,0.1,0,0.1,0
			c0.5,0.2,1,0.3,1.5,0.5c0.1,0,0.3,0.1,0.4,0.2c0.5,0.2,0.9,0.3,1.4,0.5c0.1,0,0.3,0.1,0.4,0.1c1.2,0.5,2.4,1,3.7,1.5
			c0.2,0.1,0.3,0.1,0.5,0.2c0.5,0.2,1,0.5,1.6,0.7c0.2,0.1,0.3,0.1,0.5,0.2c1.4,0.6,2.8,1.3,4.2,2c0.2,0.1,0.3,0.2,0.5,0.3
			c0.6,0.3,1.2,0.6,1.8,0.9c0.2,0.1,0.4,0.2,0.6,0.3c0.7,0.4,1.4,0.7,2.1,1.1c0.1,0,0.1,0.1,0.2,0.1c0.8,0.4,1.6,0.9,2.5,1.3
			c0.2,0.1,0.4,0.2,0.5,0.3c0.7,0.4,1.3,0.7,2,1.1c0.2,0.1,0.5,0.3,0.7,0.4c0.7,0.4,1.5,0.8,2.2,1.3c0.1,0.1,0.3,0.2,0.4,0.2
			c0.9,0.5,1.8,1.1,2.7,1.6c0.2,0.1,0.3,0.2,0.5,0.3c0.8,0.5,1.5,0.9,2.3,1.4c0.3,0.2,0.5,0.3,0.8,0.5c0.8,0.5,1.5,1,2.3,1.5
			c0.2,0.1,0.4,0.3,0.6,0.4c1,0.6,2,1.3,3,2c0.2,0.1,0.3,0.2,0.5,0.3c0.9,0.6,1.8,1.2,2.6,1.8c0.3,0.2,0.6,0.4,0.9,0.6
			c0.8,0.5,1.6,1.1,2.5,1.7c0.3,0.2,0.5,0.4,0.8,0.5c1.1,0.8,2.2,1.5,3.3,2.3c0.1,0.1,0.2,0.1,0.2,0.2c1,0.7,2.1,1.5,3.2,2.2
			c0.3,0.2,0.6,0.5,1,0.7c0.9,0.6,1.8,1.3,2.7,1.9c0.3,0.2,0.6,0.5,1,0.7c1.2,0.9,2.4,1.8,3.6,2.7c125.2,93,216.3,238.7,238.9,277
			c1.1,2,2.2,3.8,3.2,5.4c0.4,0.7,0.7,1.2,1,1.7c0,0,0,0.1,0,0.1c0.1,0.2,0.2,0.4,0.3,0.6c0,0,0,0.1,0.1,0.1
			c0.1,0.2,0.2,0.3,0.3,0.5c0.1,0.1,0.1,0.2,0.2,0.3c0,0.1,0.1,0.1,0.1,0.2c0,0.1,0.1,0.1,0.1,0.2c0.1,0.3,0.2,0.4,0.3,0.5
			c0,0.1,0.1,0.1,0.1,0.2c0.1,0.2,0.2,0.4,0.4,0.5c0,0.1,0.1,0.1,0.1,0.2c0.2,0.2,0.3,0.4,0.5,0.6c0.2,0.2,0.3,0.5,0.5,0.7
			c8.5,12.5,16.2,17.1,28.6,10.4c14.3-7.7,4.4-27.5-8.8-48.4c-4-6.3-10-15.5-16.5-25.2c-10.3-15.6-21.8-32.6-27.9-41.7c0,0,0,0,0,0
			c8.3-1.8,16.7-3.5,25.4-5c2.9-0.5,5.9-1,8.8-1.5c13.1-2.1,26.5-3.9,40.2-5.3c0.1,0,0.1,0,0.2,0c2-0.2,4-0.4,5.9-0.6
			c0.4,0,0.9-0.1,1.3-0.1c1.8-0.2,3.5-0.3,5.3-0.5c0.7-0.1,1.4-0.1,2-0.2c1.6-0.1,3.2-0.3,4.9-0.4c0.8-0.1,1.7-0.1,2.5-0.2
			c1.5-0.1,3-0.2,4.6-0.3c1-0.1,2-0.1,2.9-0.2c1.4-0.1,2.9-0.2,4.3-0.2c1.1-0.1,2.2-0.1,3.3-0.2c1.3-0.1,2.7-0.1,4-0.2
			c1.2-0.1,2.4-0.1,3.6-0.1c1.3,0,2.5-0.1,3.8-0.1c1.3,0,2.7-0.1,4-0.1c1.2,0,2.3-0.1,3.5-0.1c1.6,0,3.1-0.1,4.7-0.1
			c1,0,1.9,0,2.9,0c2.3,0,4.7,0,7,0c0.2,0,0.4,0,0.6,0c0.1,0,0.2,0,0.2,0c2.4,0,4.8,0,7.2,0c0.8,0,1.7,0,2.5,0c1.7,0,3.3,0.1,5,0.1
			c0,0,0,0,0,0c0.8,0,1.7,0,2.5,0.1c0.1,0,0.2,0,0.4,0c1.6,0,3.2,0.1,4.7,0.1c1,0,1.9,0.1,2.9,0.1c1.7,0.1,3.4,0.1,5.1,0.2
			c0,0,0.1,0,0.1,0c0.7,0,1.4,0.1,2.1,0.1c0.1,0,0.2,0,0.3,0c2.5,0.1,4.9,0.2,7.4,0.4c0,0,0,0,0,0c0.6,0,1.2,0.1,1.9,0.1
			c0.1,0,0.1,0,0.2,0c1.8,0.1,3.6,0.2,5.5,0.3c0,0,0,0,0,0c1,0.1,2,0.1,3,0.2c0,0,0.1,0,0.1,0c1.5,0.1,3,0.2,4.4,0.3c0,0,0,0,0,0
			c1.1,0.1,2.2,0.2,3.3,0.3c0,0,0,0,0,0c1.4,0.1,2.8,0.2,4.2,0.4c0,0,0,0,0.1,0c1,0.1,2.1,0.2,3.1,0.3c0.1,0,0.2,0,0.3,0
			c1.4,0.1,2.9,0.3,4.3,0.4c0.1,0,0.1,0,0.2,0c0.7,0.1,1.5,0.1,2.2,0.2c0.3,0,0.7,0.1,1,0.1c2.4,0.3,4.7,0.5,7.1,0.8c0,0,0,0,0,0
			c1.1,0.1,2.2,0.3,3.3,0.4c0.2,0,0.4,0,0.5,0.1c1.3,0.2,2.5,0.3,3.8,0.5c0,0,0,0,0,0c1.3,0.2,2.7,0.3,4,0.5c0,0,0.1,0,0.1,0
			c1.2,0.2,2.3,0.3,3.5,0.5c1.4,0.2,2.9,0.4,4.3,0.6c1.1,0.2,2.1,0.3,3.2,0.5c0,0,0,0,0.1,0c0.9,0.1,1.8,0.3,2.8,0.4
			c0.6,0.1,1.1,0.2,1.7,0.3c0.8,0.1,1.7,0.3,2.5,0.4c2.7,0.4,5.5,0.9,8.2,1.4c0.2,0,0.5,0.1,0.7,0.1c2.8,0.5,5.5,1,8.3,1.5
			c0.7,0.1,1.5,0.3,2.2,0.4c0,0,0,0,0,0c1.7,0.3,3.4,0.7,5.2,1c0,0,0,0,0,0c0.7,0.1,1.5,0.3,2.2,0.5c0,0,0,0,0,0
			c1.4,0.3,2.7,0.6,4.1,0.9c0.4,0.1,0.8,0.2,1.3,0.3c0.6,0.1,1.1,0.2,1.7,0.4c0.5,0.1,1,0.2,1.5,0.3c8.3,1.8,16.5,3.8,24.8,5.9
			c0,0,0,0,0.1,0c0.3,0.1,0.5,0.1,0.8,0.2c0,0,0,0,0,0c2.1,0.6,4.2,1.1,6.3,1.7c0,0,0,0,0,0c0.3,0.1,0.6,0.2,0.9,0.2c0,0,0,0,0,0
			c9.5,2.6,19.1,5.5,28.6,8.6c0.1,0,0.3,0.1,0.4,0.1c4.6,1.5,9.3,3.1,13.9,4.7c0.3,0.1,0.6,0.2,1,0.3c2.1,0.7,4.1,1.5,6.2,2.2
			c0.1,0,0.1,0,0.2,0.1c2.3,0.8,4.6,1.7,6.9,2.6c0.7,0.3,1.3,0.5,2,0.8c1.7,0.7,3.4,1.3,5.1,2c0.4,0.1,0.8,0.3,1.1,0.5
			c2,0.8,4,1.6,6,2.4c0.4,0.2,0.9,0.4,1.3,0.5c1.9,0.8,3.8,1.6,5.8,2.4c0.7,0.3,1.3,0.6,2,0.9c4.1,1.7,8.1,3.5,12.1,5.4
			c0.6,0.3,1.3,0.6,1.9,0.9c4.1,1.9,8.1,3.8,12.2,5.7c2.3,1.1,4.7,2.3,7,3.5c0,0,0.1,0,0.1,0.1c0.1,0.1,0.3,0.1,0.4,0.2
			c13.4,6.7,26.6,14,39.7,21.9c0.7,0.4,1.4,0.9,2.2,1.3c64.5,39.4,125.2,93.5,177.4,166c6.1,6.9,12,14.1,17.5,21.5
			c3.9,5.2,7.7,10.6,11.3,16c35.1,52.6,55.9,114.7,57.6,175.7C1200.5,876.4,1200.5,876.5,1200.5,876.7z"/>
		<path d="M775.9,846.8c0-0.3-0.1-0.5-0.1-0.8c-0.2-1.4-0.4-2.9-0.7-4.3c-2.1-9.9-7.1-19.7-15.2-29.1c-7.2-8.4-16.2-15.2-27-20.3
			c-2.4-1.1-4.9-2.2-7.5-3.1c-4.1-1.5-8.2-2.7-12.4-3.7c-1.4-0.3-2.7-0.6-4.1-0.9c-1.4-0.3-2.8-0.5-4.2-0.7
			c-4.2-0.6-8.4-0.9-12.6-0.9c-5.6,0-11.2,0.5-16.8,1.6c-0.8,0.2-1.6,0.3-2.4,0.5c-3.2,0.7-6.3,1.5-9.3,2.5
			c-0.5,0.2-1.1,0.4-1.6,0.6c-1,0.3-2,0.7-2.9,1.1c-6.1,2.4-11.6,5.4-16.5,9.2c-1.5,1.2-3,2.4-4.5,3.7c-11.1,10.1-16,22.5-16.8,36.3
			c-0.8,13.1,1.7,26.1,10.9,38.1c14.6,19.2,34.9,31.6,60.9,36.4c3.2,0.6,6.6,1.1,10,1.5c3.2,0.3,6.4,0.5,9.4,0.5
			c16,0,29.8-4.7,40.9-13.8c4.9-4,8.9-8.5,12-13.3c1.3-1.9,2.4-3.9,3.4-6c0.5-0.9,0.9-1.9,1.3-2.8c0.3-0.7,0.6-1.4,0.9-2.2
			c0.6-1.6,1.2-3.2,1.8-4.9c0.5-1.4,0.9-2.9,1.3-4.4c1.4-5.2,2-10.4,1.9-15.6c0-0.1,0-0.2,0-0.3C776.1,850,776,848.4,775.9,846.8z
			 M751.5,862c-2.6,9.7-6.9,16.8-13.6,22.2c-6,4.9-13.3,7.7-21.5,8.6c14.5-10.5,22.2-26.5,23.7-41.2c1.2-11.5-3.3-25-12.3-36.9
			c5.3,3.1,10.1,6.9,14,11.5C751.7,837.5,754.8,849.3,751.5,862z"/>
		<path d="M736.8,958.7c-0.9-1.2-1.8-2.4-2.9-3.6c-6.2-7.1-14.2-12.7-24.1-16.3c-1.5-0.6-3-1-4.6-1.5c-2.3-0.7-4.6-1.3-6.9-1.7
			c-2.9-0.5-5.9-0.9-8.8-1c-1,0-2-0.1-2.9-0.1c-4.5,0-8.9,0.5-13.4,1.4c-3.4,0.7-6.5,1.7-9.5,2.8c-3,1.2-5.7,2.5-8.3,4.1
			c-1.7,1.1-3.3,2.2-4.9,3.5c-0.5,0.5-1.1,0.9-1.6,1.4c-7.8,7.1-11.1,15.7-11.7,25.3c-0.1,1.7-0.1,3.4-0.1,5
			c0.3,7.4,2.4,14.7,7.6,21.5c0.3,0.4,0.7,0.8,1,1.2c1.3,1.6,2.6,3.1,3.9,4.5c5,5.3,10.9,9.6,17.4,12.9c6.1,3.1,12.8,5.3,20.1,6.7
			c1.1,0.2,2.3,0.4,3.4,0.6c1.2,0.2,2.3,0.3,3.5,0.4c0.8,0.1,1.6,0.1,2.4,0.2c1.4,0.1,2.7,0.2,4,0.2c0.1,0,0.1,0,0.2,0h0
			c1,0,2.1,0,3.1-0.1s2-0.1,3-0.3c0.7-0.1,1.3-0.2,2-0.3c1.5-0.2,2.9-0.5,4.3-0.9c0.9-0.2,1.7-0.5,2.6-0.8c5-1.6,9.5-4.1,13.6-7.4
			c0.9-0.8,1.8-1.5,2.6-2.4c0.7-0.7,1.4-1.4,2-2.1c0.6-0.7,1.2-1.4,1.8-2.1c3.9-5,6.4-10.7,8.1-16.9c0.9-3.3,1.3-6.6,1.4-9.8
			c0.1-7.8-2.2-15.5-7.2-22.9C737.7,960,737.2,959.4,736.8,958.7z M724.9,988.8c-1.1,4-2.7,7.4-4.8,10.1c-1.1,1.3-2.2,2.5-3.6,3.7
			c-3.2,2.6-7,4.3-11.2,5c5.6-6.8,9.2-14.9,10.6-22.7c1.4-7.3,0-15.8-3.7-23.9c2.4,1.7,4.6,3.6,6.5,5.8
			C725,974,726.9,980.9,724.9,988.8z"/>
		<path d="M640.8,752.3c5.6,2.6,11.6,4.5,18.2,5.8c1.8,0.3,3.7,0.6,5.6,0.8c0.5,0.1,0.9,0.1,1.4,0.2c1.9,0.2,3.7,0.3,5.5,0.3
			c0.4,0,0.8,0,1.1,0h0h0c2,0,4-0.1,5.9-0.3c0.2,0,0.3,0,0.5-0.1c1.9-0.2,3.7-0.6,5.5-1c0.6-0.2,1.2-0.3,1.8-0.5
			c1.5-0.4,2.9-0.9,4.3-1.5c2.4-1,4.7-2.2,6.8-3.6c0.5-0.4,1.1-0.7,1.6-1.1c0.7-0.5,1.4-1,2.1-1.6c1-0.8,1.9-1.6,2.8-2.5
			c0.8-0.7,1.5-1.5,2.2-2.3c4.8-5.4,7.7-11.8,9.5-18.7c3.2-12.4,0.8-24.5-8.2-36c-0.6-0.8-1.2-1.5-1.9-2.3c-0.8-0.9-1.6-1.8-2.4-2.6
			c-5.5-5.6-12.2-10-20.3-13.2c-0.5-0.2-0.9-0.4-1.4-0.6c-0.2-0.1-0.4-0.1-0.6-0.2c-1.7-0.6-3.4-1.2-5.2-1.6c-1.9-0.5-3.8-1-5.8-1.3
			c-3.9-0.7-7.8-1.1-11.7-1.1c-4.5,0-8.9,0.5-13.4,1.4c-9.8,2.1-17.8,6-24.3,11.9c-6.6,6-10,13.1-11.2,21c-0.2,1.4-0.4,2.8-0.5,4.3
			c-0.3,4.8,0.1,9.6,1.4,14.3c1.2,4.2,3.2,8.3,6.2,12.3c0.3,0.4,0.6,0.7,0.9,1.1C623.8,741.7,631.6,748,640.8,752.3z M675.1,695.4
			c3.8,1.8,7,4.2,9.6,7.2c4.9,5.7,6.4,11.2,4.8,17.4c-1.3,4.9-3.4,8.2-6.6,10.9c-2.9,2.4-6.3,3.7-10.3,4.2
			c3.5-5.9,5.6-12.6,6.4-18.8C679.8,709.7,678.4,702.2,675.1,695.4z"/>
		<path d="M1153.1,973.9c-0.3-0.7-0.7-1.3-1.1-2c-0.6-1-1.2-2.1-1.9-3.1c-0.8-1.1-1.6-2.2-2.4-3.2c-0.7-0.9-1.5-1.7-2.2-2.5
			c-0.5-0.5-0.9-1-1.4-1.4c-0.8-0.7-1.6-1.4-2.4-2.1c-4.4-3.5-9.7-6-15.8-7.2c-1.3-0.2-2.6-0.4-4-0.5c-0.5,0-1.1-0.1-1.6-0.1
			c-1.4-0.1-2.8-0.2-4.1-0.2h0l0,0c-6.4,0-12.2,1-17.2,3.1c-0.5,0.2-1,0.4-1.5,0.7c-1,0.5-1.9,1-2.8,1.5c-1.4,0.8-2.7,1.7-3.9,2.7
			c-1.1,0.9-2.1,1.8-3,2.8c0,0,0,0,0,0c-0.8,0.8-1.5,1.7-2.2,2.6c-0.3,0.4-0.7,0.9-1,1.4c-0.9,1.4-1.8,2.9-2.6,4.5
			c-0.6,1.2-1.1,2.5-1.6,3.8c-0.4,1-0.7,2-1,3c-0.2,0.8-0.5,1.6-0.7,2.5c-0.9,4-1.4,8.1-1.6,12.2c-0.2,3.4-0.1,6.7,0.3,10.1
			c0.2,1.4,0.4,2.8,0.7,4.2c1,4.5,2.7,8.8,5.6,13.1c4.4,6.6,10.2,11.6,17.6,14.7c1.4,0.6,2.9,1.1,4.5,1.5c1.2,0.4,2.5,0.7,3.8,0.9
			c1.4,0.3,2.9,0.5,4.4,0.6c1.4,0.1,2.7,0.2,4,0.2c9.4,0,16.8-3.3,22.8-8.5c0.9-0.7,1.7-1.5,2.5-2.3c0.2-0.2,0.4-0.4,0.6-0.6
			c3.4-3.6,5.9-7.6,7.8-11.8c0.7-1.6,1.4-3.3,2-4.9c0.7-1.9,1.3-3.9,1.9-5.8c0.3-1.1,0.6-2.3,0.7-3.4c0.2-1.1,0.3-2.3,0.5-3.4
			c1-7.7-0.1-15.3-3.7-22.7C1153.1,973.9,1153.1,973.9,1153.1,973.9z M1136.7,994.9l-0.1,0.4c-0.1,1.2-0.3,2.3-0.5,3
			c-1.4,4.7-3.1,9.5-6.7,13.1c-3.5,3.5-7.1,5.1-11.7,5.1c-0.6,0-1.2,0-1.9-0.1c6.3-5.6,9.6-13.3,10.4-20.4
			c0.8-7.3-2.8-16.2-9.6-23.4c1,0,2,0,3.1,0.1c0.7,0.1,1.4,0.2,2,0.3c4.8,0.9,8.6,3.5,11.6,7.9
			C1136.3,985.3,1137.3,989.7,1136.7,994.9z"/>
		<path d="M1122,704.3c-0.4-0.1-0.8-0.1-1.2-0.2c-0.7-0.1-1.4-0.2-2.2-0.3c-0.2,0-0.4-0.1-0.6-0.1c-2.3-0.2-4.5-0.3-6.6-0.3
			c-1.9,0-3.8,0.1-5.6,0.3c-2.7,0.3-5.3,0.7-7.7,1.4c-2.2,0.6-4.2,1.4-6.1,2.3c-1,0.5-1.9,1-2.8,1.5c-1.3,0.8-2.6,1.7-3.7,2.8
			c-2.7,2.4-5,5.2-6.8,8.6c-0.1,0.1-0.2,0.3-0.2,0.4c-3.2,6.3-4.2,12.9-4.5,19.8c-0.1,2.1-0.1,4.3,0.1,6.4c0.5,6.5,2.4,12.8,6.9,19
			c3.4,4.7,7.6,8.5,12.7,11.4c3.9,2.2,8.4,3.8,13.4,4.8c1.1,0.2,2.2,0.4,3.3,0.5c0.4,0,0.7,0.1,1.1,0.1c1.6,0.2,3.1,0.2,4.6,0.2
			c1.4,0,2.8-0.1,4.2-0.2c0.9-0.1,1.8-0.2,2.7-0.4c0.4-0.1,0.8-0.2,1.3-0.3c6.5-1.4,11.9-4.6,16.4-8.8c2.4-2.3,4.4-4.7,6-7.3
			c0.1-0.1,0.1-0.2,0.2-0.4c1-1.6,1.8-3.2,2.6-4.9c0.3-0.6,0.6-1.3,0.8-1.9c0.9-2.2,1.7-4.5,2.4-6.8c0.6-2.1,0.8-4.2,1.1-6.3
			c1.1-8.8-0.9-17.5-7.1-25.9C1140.7,712.1,1132.8,706.4,1122,704.3z M1137.8,744.1l-0.1,0.5c-0.1,1.2-0.3,2.4-0.5,3.1
			c-1.8,5.9-3.7,10.4-7.5,13.9c-3.9,3.6-8,5.3-13.2,5.4c7.6-6.9,11.7-16.2,12.6-24.8c0.7-6.5-1.5-13.9-5.9-20.9
			c4.1,1.6,7.6,4.2,10.5,8.1C1137.1,734.1,1138.4,738.7,1137.8,744.1z"/>
	</g>
</g>
</svg>
